<?xml version="1.0" standalone="no"?>
<!DOCTYPE svg PUBLIC "-//W3C//DTD SVG 1.1//EN" "http://www.w3.org/Graphics/SVG/1.1/DTD/svg11.dtd" >
<!--
2013-9-30: Created.
-->
<svg>
<metadata>
Created by iconfont
</metadata>
<defs>

<font id="iconfont" horiz-adv-x="1024" >
  <font-face
    font-family="iconfont"
    font-weight="500"
    font-stretch="normal"
    units-per-em="1024"
    ascent="896"
    descent="-128"
  />
    <missing-glyph />
    
    <glyph glyph-name="saoma" unicode="&#59100;" d="M928 352H96c-17.664 0-32 14.336-32 32s14.336 32 32 32h832c17.696 0 32-14.336 32-32s-14.304-32-32-32z m-96-384H640c-17.696 0-32 14.304-32 32s14.304 32 32 32h192c17.664 0 32 14.336 32 32V224c0 17.696 14.304 32 32 32s32-14.304 32-32v-160c0-52.928-43.072-96-96-96z m-480 0H192c-52.928 0-96 43.072-96 96V224c0 17.696 14.336 32 32 32s32-14.304 32-32v-160c0-17.664 14.368-32 32-32h160c17.664 0 32-14.304 32-32s-14.336-32-32-32zM128 512c-17.664 0-32 14.336-32 32V704c0 52.928 43.072 96 96 96h160c17.664 0 32-14.336 32-32s-14.336-32-32-32H192c-17.632 0-32-14.368-32-32v-160c0-17.664-14.336-32-32-32z m768 0c-17.696 0-32 14.336-32 32V704c0 17.632-14.336 32-32 32H640c-17.696 0-32 14.336-32 32s14.304 32 32 32h192c52.928 0 96-43.072 96-96v-160c0-17.664-14.304-32-32-32z"  horiz-adv-x="1024" />

    
    <glyph glyph-name="qianbao" unicode="&#59098;" d="M894.199259-57.987122H129.688351c-40.265678 0-72.9088 31.458029-72.9088 70.265132V573.669776c0 0.759259 0.011239 1.514771 0.037464 2.270283 1.173854 35.623961 32.114888 63.65159 69.097522 63.848897l768.367141 4.069776c40.220722 0 72.825132-31.428059 72.825132-70.190205v-192.925347c0-0.044956-0.038712-0.078673-0.083669-0.078673h-344.351219c-61.428761 0-111.9232-48.212917-110.706888-107.408858 1.178849-57.160429 49.62279-103.14802 109.217093-103.14802h345.839766c0.044956 0 0.083668-0.036215 0.083668-0.078673V12.275512c0.001249-38.803356-32.641873-70.262634-72.906302-70.262634z m-345.829776 328.654049c-0.816702 39.501424 33.025249 71.617561 74.018966 71.617561h344.634692c0.044956 0 0.083668-0.037463 0.083669-0.084917v-140.205581a0.084917 0.084917 0 0 0-0.083669-0.08117H621.183376c-39.727454-0.001249-72.019668 30.650068-72.813893 68.754107z m109.223337 4.721639c0 19.379824-16.30158 35.089483-36.409444 35.089483-20.112859 0-36.414439-15.709659-36.414439-35.089483 0-19.38482 16.30158-35.095727 36.414439-35.095727 20.107863 0 36.409444 15.710907 36.409444 35.095727z m101.761873 549.323551c24.65842 6.367532 48.872273-3.646439 54.078439-22.365658l36.404448-130.928391c0.004995-0.026224 0-0.052449-0.017482-0.069931a0.079922 0.079922 0 0 0-0.067435-0.03122H165.964176c-0.096156 0-0.116137 0.13362-0.022478 0.154849L759.354693 824.712117z"  horiz-adv-x="1024" />

    
    <glyph glyph-name="qian" unicode="&#59099;" d="M435.388566 788.475005c-232.741463 0-421.388488-188.647024-421.388488-421.388488 0-232.738966 188.647024-421.38599 421.388488-421.38599 232.740215 0 421.388488 188.645776 421.388488 421.38599 0.001249 232.740215-188.648273 421.388488-421.388488 421.388488z m154.283083-280.803278l-75.34642-75.347668h32.951571c18.033639 0 32.668098-14.631961 32.668098-32.6656 0-18.031141-14.634459-32.669346-32.668098-32.669347h-79.220137v-41.730497h79.220137c18.033639 0 32.668098-14.634459 32.668098-32.668098 0-18.036137-14.634459-32.668098-32.668098-32.668097h-79.220137v-90.641483c0-18.036137-14.63321-32.670595-32.668097-32.670596-18.031141 0-32.670595 14.634459-32.670595 32.670596v90.641483h-79.217639c-18.029893 0-32.668098 14.631961-32.668098 32.668097 0 18.033639 14.636956 32.668098 32.668098 32.668098h79.217639v41.730497h-79.217639c-18.029893 0-32.668098 14.638205-32.668098 32.669347 0 18.033639 14.636956 32.6656 32.668098 32.6656h32.954068l-75.34642 75.347668c-12.746302 12.747551-12.746302 33.42361 0 46.267317 12.747551 12.743805 33.426107 12.743805 46.26482 0l108.014517-108.109424 108.013268 108.013268c12.7488 12.747551 33.426107 12.747551 46.269815 0 12.743805-12.747551 12.743805-33.42361 0.001249-46.171161z m0 0M1000.246946 505.822283c-11.041717 8.831376-27.150985 7.039376-35.982361-4.001093L936.098341 466.606829c-6.411239 40.279415-17.649015 79.551063-33.65838 117.405347-25.6512 60.647024-62.367844 115.108839-109.132176 161.871922a518.272624 518.272624 0 0 1-24.53479 22.956331h-0.258497c-4.608 5.101268-11.255259 8.32562-18.670518 8.32562s-14.061268-3.2256-18.670517-8.32562c-4.033561-4.465639-6.51239-10.364878-6.51239-16.858536 0-6.684722 2.622439-12.742556 6.87079-17.250654a25.322771 25.322771 0 0 1 3.958635-3.426654c90.013346-78.845502 149.06318-192.206049 156.273639-319.214517a24.996839 24.996839 0 0 1-0.189815-2.934634c0-1.216312 0.114888-2.401405 0.283473-3.570263-1.231298-8.671532 1.993054-17.74642 9.32839-23.614439 11.041717-8.831376 27.150985-7.040624 35.982361 4.001092l67.081991 83.868098c8.828878 11.040468 7.038127 27.149737-4.003591 35.982361z"  horiz-adv-x="1024" />

    
    <glyph glyph-name="jielong" unicode="&#59097;" d="M504.6016 355.50208c61.99808 39.79776 103.10144 109.39904 103.10144 188.60032 0 123.6992-100.1984 223.8976-223.8976 223.8976S159.8976 667.8016 159.8976 544.1024c0-79.20128 41.09824-148.80256 103.10144-188.60032-117.09952-45.7984-199.70048-156.8-199.70048-290.49856h65.69984c8.00256 133.80096 119.10144 233.90208 254.8992 233.90208s246.90176-100.10112 254.8992-233.90208h65.50016c0.00512 133.69856-82.59584 244.69504-199.69536 290.49856zM381.7984 384c-88.40192 0-160 71.59808-160 160S293.4016 704 381.7984 704s160-71.59808 160-160S470.20032 384 381.7984 384zM899.59936 832h-320.19968v-0.05632a31.9744 31.9744 0 0 1-30.91968-31.94368 31.9744 31.9744 0 0 1 30.72-31.93344V768h283.60192a37.30432 37.30432 0 0 0 37.2992-37.2992V166.2976a37.30432 37.30432 0 0 0-37.2992-37.2992h-91.40224v-0.2816a31.98976 31.98976 0 0 1-27.9808-31.7184 31.97952 31.97952 0 0 1 27.9808-31.7184v-0.2816h128.19968c35.59936 0 64.50176 28.9024 64.50176 64.50176V767.49824c0 35.59936-28.9024 64.50176-64.50176 64.50176zM640 448h192V384H640zM704 320h128V256h-128zM640 704h192V640H640zM640 576h192V512H640z"  horiz-adv-x="1024" />

    
    <glyph glyph-name="chongzhi2" unicode="&#58943;" d="M581.123413 229.32138699999996c-1.911467-3.785387-5.870933-5.679787-11.881813-5.679787l-7.9872 0c-7.23968 0-10.857813 3.546453-10.857813 10.653013l0 51.933867 21.7088 0.713387 15.366827-15.98464 21.108053 19.872427c-19.26144 18.845013-39.40352 37.348693-60.433067 55.524693l-20.077227-15.57504 21.920427-21.510827c-32.57344-1.092267-58.453333-1.778347-77.643093-2.054827 14.820693 13.042347 28.306773 26.228053 40.461653 39.540053l98.23232 0 0 27.040427-80.30208 0-9.629013 23.56224-29.91104-6.560427 7.376213-16.994987-83.380907 0 0-27.047253 60.433067 0c-16.728747-19.254613-32.709973-33.39264-47.936853-42.407253l10.653013-24.38144c7.3728 0.955733 18.025813 1.880747 31.955627 2.771627-3.6864-31.955627-23.149227-52.824747-58.381653-62.58688 5.461333-6.280533 12.356267-15.090347 20.691627-26.42944 40.628907 13.39392 62.64832 43.574613 66.065067 90.548907l23.046827 1.027413 0-55.927467c0-20.486827 9.147733-30.737067 27.446613-30.737067l23.76704 0c13.114027-0.2048 22.429013 2.512213 27.962027 8.15104 5.5296 5.628587 10.277547 19.514027 14.240427 41.63584-11.475627 3.959467-21.036373 7.717547-28.68224 11.270827C584.813227 243.23072000000002 583.041707 233.10677299999998 581.123413 229.32138699999996zM512 885.22752C235.178667 885.22752 10.77248 660.81792 10.77248 384 10.77248 107.17866700000002 235.178667-117.22752000000003 512-117.22752000000003c276.814507 0 501.22752 224.406187 501.22752 501.22752C1013.22752 660.81792 788.814507 885.22752 512 885.22752zM344.91392 708.672853c41.772373 35.242667 134.4512-39.161173 167.08608-36.549973 32.63488-2.6112 125.313707 71.796053 167.082667 36.549973 41.76896-35.24608-50.582187-115.807573-50.582187-115.807573l-233.028267 0C395.472213 592.8618670000001 303.14496 673.42336 344.91392 708.672853zM637.313707 551.089493c0-11.543893-9.33888-20.882773-20.886187-20.882773l-208.85504 0c-11.547307 0-20.882773 9.33888-20.882773 20.882773 0 11.547307 9.335467 20.882773 20.882773 20.882773l208.85504 0C627.974827 571.972267 637.313707 562.6368 637.313707 551.089493zM512 50.28522699999996c-161.498453 0-292.399787-14.568107-292.399787 122.05056 0 101.573973 72.40704 261.515947 175.872 336.984747l233.028267 0c103.48544-75.465387 175.895893-235.410773 175.895893-336.984747C804.396373 35.72394699999995 673.49504 50.28522699999996 512 50.28522699999996z"  horiz-adv-x="1024" />

    
    <glyph glyph-name="shangpinzhekou" unicode="&#58923;" d="M514.43 380.14m-505.36 0a505.36 505.36 0 1 1 1010.72 0 505.36 505.36 0 1 1-1010.72 0ZM720.32 80.01H308.47c-29.82 0-56.07 20.13-63.81 49.02l-75.74 302.81c-6.58 24.78 1.63 50.65 21.61 67.3s47.01 20.14 70.48 9.06l91.23-42.98c5.42-2.56 11.93-0.47 14.87 4.8l89.22 175.49c12.39 22.07 33.84 34.77 58.08 34.77 24.24 0 45.85-12.62 57.62-33.76L662 469.71c3.02-5.03 9.37-6.97 14.71-4.41l91.23 42.98c23.46 11.15 50.49 7.59 70.48-9.06 19.98-16.65 28.19-42.67 21.45-67.69l-75.66-302.19c-7.83-29.27-34.08-49.33-63.89-49.33zM232.65 460.1c-3.25 0-5.73-1.63-7.2-2.79-2.09-1.78-5.35-5.57-3.8-11.77l75.89-302.96c1.24-4.57 5.73-8.13 10.92-8.13h411.69c5.19 0 9.76 3.49 11 8.52l75.82 302.19c1.78 6.58-1.47 10.46-3.56 12.24-2.09 1.78-6.43 4.26-12.24 1.63l-91.23-43.06c-31.28-14.71-68.84-2.71-85.8 27.49l-0.47 0.93-89.75 176.41c-2.32 4.11-7.04 4.96-9.52 4.96-2.48 0-7.2-0.78-10.07-5.88L415.19 444.3c-17.42-31.13-55.07-43.13-86.27-28.42l-91.23 42.98c-1.86 0.93-3.49 1.24-5.04 1.24z m0 0M501.95 355.29c-5.7 2.14-11.4 0-14.25-5.7l-49.87-118.27-49.87 118.27c-2.14 5.7-8.55 7.84-14.25 5.7-4.99-2.14-7.13-8.55-4.99-14.25l59.85-141.07c0-0.71 0.71-1.43 1.43-2.14l2.85-2.85h0.71c0.71 0 0.71-0.71 1.42-0.71h1.43c0.71 0 2.14-0.71 2.85-0.71s2.14 0 2.85 0.71h1.43c0.71 0 0.71 0.71 1.43 0.71h0.71l2.85 2.85c0.71 0.71 0.71 1.43 1.42 2.14l59.85 141.07c-0.01 5.7-2.15 12.11-7.85 14.25z m0 0M499.81 193.55c-1.43 0-2.85 0-4.28 0.71-5.7 2.14-7.84 8.55-5.7 14.25l59.85 141.07c2.14 5.7 8.55 7.84 14.25 5.7 5.7-2.14 7.84-8.55 5.7-14.25l-59.85-141.07c-2.13-4.27-5.69-6.41-9.97-6.41z m0 0M620.94 356c-4.27 0-8.55-2.14-9.98-6.41l-59.85-141.07c-2.14-5.7 0-11.4 5.7-14.25 1.43-0.71 2.85-0.71 4.28-0.71 4.27 0 7.84 2.14 9.97 6.41l17.1 41.32c9.98-5.7 20.66-9.26 32.78-9.26 34.2 0 61.99 27.79 61.99 61.99-0.01 34.19-27.79 61.98-61.99 61.98z m0-102.6c-8.55 0-17.1 2.85-24.23 7.84l30.64 72.67c19.24-2.85 34.2-19.95 34.2-39.9 0-22.8-17.81-40.61-40.61-40.61z m0 0"  horiz-adv-x="1024" />

    
    <glyph glyph-name="jifenjiabei" unicode="&#58924;" d="M510.27 384.56m-497.56 0a497.56 497.56 0 1 1 995.12 0 497.56 497.56 0 1 1-995.12 0ZM624.8 564.15c-30.17 30.17-70.18 46.75-112.82 46.75-42.63 0-82.71-16.58-112.82-46.75-30.17-30.17-46.75-70.18-46.75-112.82s16.58-82.71 46.75-112.82c30.17-30.17 70.18-46.75 112.82-46.75 42.63 0 82.71 16.58 112.82 46.75 30.17 30.17 46.75 70.18 46.75 112.82s-16.59 82.71-46.75 112.82zM511.98 329.16c-67.38 0-122.17 54.79-122.17 122.17S444.6 573.5 511.98 573.5s122.17-54.79 122.17-122.17-54.79-122.17-122.17-122.17z m0 0M827.18 183.75l-6.79 8.72-104.66 133.89c6.36 10.35 11.97 21.13 16.77 32.41 12.47 29.54 18.82 60.89 18.82 93.18 0 32.29-6.36 63.64-18.82 93.18-12.03 28.48-29.29 54.1-51.3 76.04-22 22-47.56 39.21-76.04 51.3-29.54 12.47-60.9 18.82-93.18 18.82-32.29 0-63.64-6.36-93.18-18.82-28.49-12.03-54.1-29.29-76.05-51.3-22-22-39.2-47.56-51.3-76.04-12.47-29.54-18.82-60.89-18.82-93.18 0-32.29 6.36-63.64 18.82-93.18 4.8-11.28 10.35-22.13 16.77-32.41L203.63 192.47l-6.79-8.72c-6.36-8.1-4.86-19.94 3.24-26.24l0.06-0.06c2.31-1.81 5.05-2.99 7.98-3.37l3.74-0.5 80.03-11.22 30.29-74.92 1.37-3.43c1.12-2.74 2.93-5.17 5.3-7.04 8.1-6.36 19.94-4.86 26.24 3.24l6.79 8.73L476.2 215.29c11.78-1.75 23.75-2.68 35.9-2.68 12.09 0 24.06 0.87 35.9 2.68l114.19-146.35 6.79-8.73c6.36-8.1 18.14-9.54 26.24-3.24 2.37 1.81 4.18 4.24 5.3 7.04l1.37 3.43 30.29 74.92 80.03 11.22 3.74 0.5c2.93 0.44 5.67 1.56 7.98 3.37l0.06 0.06c8.05 6.35 9.49 18.13 3.19 26.24z m-479.63-72.24c-0.87-1.12-2.68-0.87-3.18 0.44l-21.94 54.29a18.655 18.655 0 0 1-5.67 7.54c-0.06 0.06-0.19 0.12-0.25 0.19-0.06 0.06-0.19 0.12-0.25 0.19-2.49 1.87-5.42 3.18-8.72 3.68l-57.97 8.17c-1.43 0.19-2.12 1.87-1.19 2.99l82.84 106.09c3.68-4.24 7.54-8.35 11.53-12.34 22-22 47.56-39.21 76.05-51.3a222.73 222.73 0 0 1 17.33-6.54l-88.58-113.4zM511.98 250c-53.91 0-104.65 21.01-142.8 59.15-5.49 5.48-10.6 11.22-15.34 17.14-5.98 7.54-11.47 15.46-16.27 23.69-17.95 30.6-27.55 65.57-27.55 101.97 0 53.91 21.01 104.65 59.15 142.8 38.14 38.15 88.88 59.15 142.8 59.15 53.92 0 104.65-21.01 142.8-59.15 38.15-38.14 59.15-88.88 59.15-142.8 0-36.4-9.6-71.37-27.55-101.97-4.8-8.23-10.29-16.14-16.27-23.69a189.34 189.34 0 0 0-15.34-17.14C616.63 271.01 565.89 250 511.98 250z m262.41-63.95l-57.97-8.16c-3.3-0.44-6.23-1.75-8.72-3.68-0.06-0.06-0.19-0.12-0.25-0.19-0.06-0.06-0.19-0.12-0.25-0.19a18.655 18.655 0 0 1-5.67-7.54L679.59 112c-0.56-1.31-2.31-1.56-3.18-0.44l-88.57 113.32c5.86 1.93 11.59 4.11 17.33 6.54 28.48 12.03 54.1 29.29 76.04 51.3 3.99 3.99 7.85 8.1 11.53 12.34l82.84-106.02c0.93-1.12 0.24-2.8-1.19-2.99z m0 0"  horiz-adv-x="1024" />

    
    <glyph glyph-name="youxianfahuo" unicode="&#58925;" d="M510.27 384.56m-497.56 0a497.56 497.56 0 1 1 995.12 0 497.56 497.56 0 1 1-995.12 0ZM353.15 539.98c-17.3 0-33.9-6.85-46.11-19.05l-87.91-87.73a64.944 64.944 0 0 1-19.09-45.95v-141.19a38.538 38.538 0 0 1 11.33-27.25 38.54 38.54 0 0 1 27.28-11.25h53.22c7.1 38.46 40.64 66.37 79.76 66.36 39.11 0.03 72.67-27.88 79.77-66.35h106.44c7.1 38.46 40.65 66.37 79.76 66.35 39.11 0.02 72.66-27.89 79.76-66.35h13.33c10.22-0.01 20.04 4.03 27.28 11.25a38.532 38.532 0 0 1 11.33 27.24v93.23H502.96c-22.72-0.02-41.16 18.39-41.18 41.12V539.98H353.15z m-66.71 1.58a94.462 94.462 0 0 0 66.71 27.58h123.21c8.05 0 14.58-6.53 14.58-14.58v-174.17c0-6.56 5.35-11.96 12.02-11.96h280.93c3.86 0 7.58-1.54 10.31-4.27 2.73-2.73 4.27-6.44 4.27-10.31v-107.81c0-37.4-30.38-67.67-67.78-67.67h-26.6c-3.87 0-7.58 1.54-10.31 4.27a14.603 14.603 0 0 0-4.27 10.31c0 28.56-23.21 51.77-51.91 51.77a51.84 51.84 0 0 1-36.67-15.13 51.868 51.868 0 0 1-15.23-36.63c0-3.87-1.54-7.58-4.27-10.31a14.586 14.586 0 0 0-10.31-4.27H438.13c-3.87 0-7.58 1.53-10.31 4.27a14.561 14.561 0 0 0-4.27 10.31c0 28.55-23.21 51.76-51.92 51.76a51.826 51.826 0 0 1-51.9-51.76c0-3.87-1.54-7.58-4.27-10.31a14.586 14.586 0 0 0-10.31-4.27h-66.49c-17.96-0.02-35.19 7.1-47.9 19.79a67.748 67.748 0 0 0-19.88 47.86v141.2c0 25 9.95 48.96 27.66 66.61l87.9 87.73v-0.01z m0 0M370.42 245.69a51.88 51.88 0 0 1-36.68-15.13 51.833 51.833 0 0 1-15.23-36.63c0-28.57 23.21-51.78 51.91-51.78a51.84 51.84 0 0 1 36.67 15.13 51.85 51.85 0 0 1 15.23 36.63c0 28.57-23.21 51.78-51.9 51.78z m-81.07-51.76c0 44.71 36.33 80.92 81.07 80.92 44.75 0 81.07-36.21 81.07-80.92 0-44.73-36.33-80.94-81.07-80.94-44.74 0-81.07 36.21-81.07 80.92v0.02z m348.38 51.76a51.84 51.84 0 0 1-36.67-15.13 51.833 51.833 0 0 1-15.23-36.63c0-28.57 23.21-51.78 51.91-51.78 13.75-0.02 26.95 5.42 36.68 15.13a51.8 51.8 0 0 1 15.24 36.63c-0.01 28.57-23.22 51.78-51.93 51.78z m-81.07-51.76c0 44.71 36.33 80.92 81.07 80.92 44.75 0 81.07-36.21 81.07-80.92 0-44.73-36.33-80.94-81.07-80.94-44.74 0-81.07 36.21-81.07 80.92v0.02z m-203.57 283.2c5.69-5.7 5.68-14.93-0.03-20.62l-54.02-53.92c-5.7-5.69-14.94-5.68-20.63 0.02-5.69 5.7-5.68 14.94 0.02 20.63l54.03 53.9c5.71 5.7 14.94 5.69 20.63-0.01z m109.4 135.51c0 21.47 17.41 38.88 38.88 38.88h258.2c10.31 0 20.2-4.1 27.5-11.39a38.889 38.889 0 0 0 11.39-27.5v-255.17c0-3.86-1.54-7.58-4.27-10.31s-6.44-4.27-10.31-4.27h-282.5c-10.31 0-20.2 4.1-27.5 11.39a38.889 38.889 0 0 0-11.39 27.5V612.64z m38.89 9.72c-5.37 0-9.72-4.35-9.72-9.72v-230.86c0-5.37 4.35-9.72 9.72-9.72H769.3V612.64c0 5.37-4.35 9.72-9.72 9.72h-258.2z m0 0M702.9 496.96c0.99 2.34 0.08 4.56-2.26 5.55l-31.22 13.15 43.29 49.31c0.55 0.23 0.72 0.62 0.88 1.01 0.99 2.34 0.08 4.56-2.26 5.55l-39.03 16.44c-1.56 0.66-3.62 0.14-4.66-1.25l-70.68-80.51c-0.16-0.39-0.72-0.62-0.88-1.01-0.99-2.34-0.08-4.56 2.26-5.55l34.73-14.63-35.2-62.83-0.16-0.39c-0.99-2.34-0.08-4.56 2.26-5.55 1.56-0.66 3.06-0.37 4.5 0.86l97.38 78.45c0.56 0.23 0.72 0.62 1.05 1.4z m-86.82-59.92l26.67 48.04 0.16 0.39c0.99 2.34 0.08 4.56-2.26 5.55l-33.56 14.14 64.66 73.86 30.83-12.99-43.29-49.31c-0.16-0.39-0.72-0.62-0.88-1.01-0.99-2.34-0.08-4.56 2.26-5.55l30.05-12.66-74.64-60.46z m0 0"  horiz-adv-x="1024" />

    
    <glyph glyph-name="shouhou2" unicode="&#58928;" d="M510.27 384.56m-497.56 0a497.56 497.56 0 1 1 995.12 0 497.56 497.56 0 1 1-995.12 0ZM495.82 518.09c49.49 0 89.75 40.26 89.75 89.75s-40.26 89.75-89.75 89.75-89.75-40.26-89.75-89.75c-0.01-49.49 40.25-89.75 89.75-89.75z m0 149.59c32.99 0 59.84-26.84 59.84-59.84s-26.84-59.83-59.84-59.83c-32.99 0-59.84 26.83-59.84 59.83 0 32.99 26.85 59.84 59.84 59.84z m194.46-330.16c49.49 0 89.75 40.26 89.75 89.75s-40.26 89.75-89.75 89.75-89.75-40.26-89.75-89.75 40.26-89.75 89.75-89.75z m0 149.59c32.99 0 59.83-26.84 59.83-59.84s-26.84-59.84-59.83-59.84c-32.99 0-59.84 26.84-59.84 59.84 0.01 33 26.85 59.84 59.84 59.84z m135.01-270.33c-5.7 21.07-30.17 60.9-81.94 60.9H618.48c-0.2 0.26-0.34 0.53-0.54 0.79-22.18 27.77-56.04 43.69-92.91 43.69h-55.91c-35.83 43.9-95.48 55.79-122.9 59.02v16.17c0 8.27-6.7 14.96-14.96 14.96h-89.75c-8.26 0-14.96-6.69-14.96-14.96V128.1c0-8.27 6.7-14.96 14.96-14.96h89.75c8.26 0 14.96 6.69 14.96 14.96v20.68c38.11-17.56 114.41-50.59 149.48-50.59h0.21c85.27 0.35 311.25 96.84 320.83 100.94 6.85 2.93 10.49 10.45 8.55 17.65z m-508.98-73.72h-59.84V382.4h59.84v-239.34zM495.8 128.1h-0.14c-29.85 0-111.29 35.64-149.43 53.7V350.96c25.55-3.5 76.6-15.03 103.35-52.45 2.8-3.93 7.34-6.27 12.17-6.27h63.29c27.72 0 53.06-11.83 69.53-32.44 6.91-8.65 11.59-17.68 13.99-27H434.12c-8.26 0-14.96-6.69-14.96-14.96s6.7-14.96 14.96-14.96h191.31c8.26 0 14.96 6.69 14.96 14.96 0 10.27-1.83 20.25-5.22 29.91h108.18c26.81 0 40.95-15.56 47.71-26.98-50.89-21.14-227.43-92.4-295.26-92.67z m0 0"  horiz-adv-x="1024" />

    
    <glyph glyph-name="kefu1" unicode="&#58929;" d="M510.27 384.56m-497.56 0a497.56 497.56 0 1 1 995.12 0 497.56 497.56 0 1 1-995.12 0ZM812.05 235.24h-47.87V383.63c0 137.22-111.69 248.91-248.91 248.91S266.36 520.85 266.36 383.63v-148.39h-47.87V383.63c0 164.35 132.43 296.78 296.78 296.78 164.35 0 296.78-132.43 296.78-296.78v-148.39z m0 0M325.39 128.33h-15.96c-51.06 0-90.95 41.49-90.95 90.95v62.23c0 51.06 41.49 90.95 90.95 90.95h15.96c51.06 0 90.95-41.49 90.95-90.95v-62.23c0-51.05-41.48-90.95-90.95-90.95z m-15.95 197.86c-23.93 0-43.08-19.15-43.08-43.08v-62.23c0-23.93 19.15-43.08 43.08-43.08h15.96c23.93 0 43.08 19.15 43.08 43.08v60.63c0 23.93-19.15 43.08-43.08 43.08h-15.96v1.6zM721.1 128.33h-14.36c-51.06 0-90.95 41.49-90.95 90.95v62.23c0 51.06 41.48 90.95 90.95 90.95h14.36c51.06 0 90.95-41.49 90.95-90.95v-62.23c0-51.05-41.48-90.95-90.95-90.95z m-15.95 197.86c-23.93 0-43.08-19.15-43.08-43.08v-62.23c0-23.93 19.15-43.08 43.08-43.08h14.36c23.93 0 43.08 19.15 43.08 43.08v60.63c0 23.93-19.15 43.08-43.08 43.08h-14.36v1.6z m0 0M681.21 426.71c-9.58 0-19.15 6.38-22.34 15.96-15.96 46.27-57.44 67.01-57.44 67.01-11.17 6.38-15.96 20.74-9.58 31.91 6.38 11.17 20.74 15.96 31.91 9.58 1.6-1.6 57.44-30.32 79.78-94.14 4.78-12.76-1.6-25.53-14.36-30.32h-7.97z m0 0"  horiz-adv-x="1024" />

    
    <glyph glyph-name="baoyou" unicode="&#58931;" d="M510.27 384.56m-497.56 0a497.56 497.56 0 1 1 995.12 0 497.56 497.56 0 1 1-995.12 0ZM375.73 657.21h30.68v-103.83h115.63v-431.84h-30.68v44.83H293.13v-44.83h-30.68V553.38h113.27V657.21z m-82.6-132.15v-151.02h82.59V525.06h-82.59z m0-179.34V194.7h82.59V345.72h-82.59z m198.22 179.34H406.4v-151.02h84.95V525.06zM406.4 345.72V194.7h84.95V345.72H406.4z m384.64-75.51c0-62.94-25.96-95.98-77.87-99.11H658.9c-1.58 12.57-3.94 23.6-7.08 33.04h23.6c10.99-1.59 19.65-2.36 25.96-2.36 40.89-1.58 60.54 22.01 58.99 70.79 0 45.61-25.96 90.45-77.87 134.51l70.79 174.62H625.86v-486.11h-30.68V610.01h188.78v-33.04l-66.07-162.82c50.33-44.06 74.7-92.03 73.15-143.94z"  horiz-adv-x="1024" />

    
    <glyph glyph-name="jiagouwuche" unicode="&#58922;" d="M875.136 568.064h-124.928c4.608 27.776 0 55.552-9.216 87.936C703.872 785.664 569.6 859.648 439.936 827.264c-60.16-23.168-111.104-64.768-143.488-120.32-23.168-41.728-32.384-92.544-32.384-138.88h-120.32C125.184 568.064 111.36 554.24 111.36 531.072v-365.696c0-124.928 101.888-231.424 231.424-231.424h217.6c18.56 0 36.992 13.824 36.992 36.992 0 23.168-13.824 36.992-36.992 36.992H338.176c-87.936 0-162.048 74.112-162.048 162.048V498.56h657.28v-189.824c0-18.56 13.824-36.992 36.992-36.992 23.168 0 36.992 13.952 36.992 36.992V531.072c0.128 23.04-13.696 36.992-32.256 36.992z m-194.432 0H338.176c-4.608 36.992 0 74.112 18.56 106.496 23.168 41.6 60.16 69.376 106.496 83.328 92.544 27.776 189.824-27.776 212.992-120.32 4.48-23.168 9.088-46.336 4.48-69.504z m0 0M875.136 183.808H731.648V327.296c0 18.56-13.824 32.384-36.992 32.384-18.56 0-32.384-13.952-32.384-36.992V179.2H518.656c-18.56 0-32.384-13.824-32.384-36.992 0-18.56 13.824-32.384 36.992-32.384H666.88v-143.488c0-18.56 13.824-32.384 36.992-32.384 18.56 0 32.384 13.824 32.384 36.992V114.432h143.488c18.56 0 32.384 13.824 32.384 36.992-4.608 18.56-18.432 32.384-36.992 32.384z m0 0"  horiz-adv-x="1024" />

    
    <glyph glyph-name="huiyuan1" unicode="&#59096;" d="M60.235294 534.588235l744.809412-425.622588A30.117647 30.117647 0 0 0 790.136471 52.705882H173.658353a60.235294 60.235294 0 0 0-59.783529 52.766118L60.235294 534.588235zM963.764706 534.588235l-53.63953-429.116235A60.235294 60.235294 0 0 0 850.341647 52.705882H233.893647a30.117647 30.117647 0 0 0-14.968471 56.259765L963.764706 534.588235zM512 655.058824l331.053176-509.289412A60.235294 60.235294 0 0 0 792.545882 52.705882H231.454118a60.235294 60.235294 0 0 0-50.507294 93.06353L512 655.058824zM512 655.058824l331.053176-509.289412A60.235294 60.235294 0 0 0 792.545882 52.705882H512V655.058824zM512 685.176471m-60.235294 0a60.235294 60.235294 0 1 1 120.470588 0 60.235294 60.235294 0 1 1-120.470588 0ZM963.764706 564.705882m-60.235294 0a60.235294 60.235294 0 1 1 120.470588 0 60.235294 60.235294 0 1 1-120.470588 0ZM60.235294 564.705882m-60.235294 0a60.235294 60.235294 0 1 1 120.470588 0 60.235294 60.235294 0 1 1-120.470588 0Z"  horiz-adv-x="1024" />

    
    <glyph glyph-name="fanhui" unicode="&#59095;" d="M947.4 32C893.2 198.29999999999995 736.2 317.1 551 320.5c-23.1 0.4-44.9-0.1-65.6-1.5v-164.3c0.1-0.5 0.2-1 0.2-1.5 0-4-3.3-7.3-7.3-7.3-2.7 0-5 1.4-6.2 3.5v-0.7L68.8 430.6h2.1c-4 0-7.3 3.3-7.3 7.3 0 2.9 1.7 5.4 4.1 6.6L472 727v-0.7c1.3 2.1 3.6 3.5 6.2 3.5 4 0 7.3-3.3 7.3-7.3 0-0.5-0.1-1-0.2-1.5v-159.4c18.5 0.9 37.9 1.2 58.3 0.8 230.1-3.9 416.7-196.9 416.7-427.1 0.1-35.5-4.5-70.2-12.9-103.3z m-462 704.4v-0.2h-0.4l0.4 0.2z m0-596.9l-0.3 0.2h0.3v-0.2z"  horiz-adv-x="1025" />

    
    <glyph glyph-name="shuaxin" unicode="&#59094;" d="M187.456 470.976A336 336 0 0 1 555.84 50.75199999999995a48 48 0 0 0 12.544-95.168A432 432 0 0 0 94.72 495.744l-57.28 15.36a12.8 12.8 0 0 0-6.272 20.928l159.168 179.456a12.8 12.8 0 0 0 22.144-5.888l48.064-235.072a12.8 12.8 0 0 0-15.808-14.912l-57.28 15.36zM836.48 296.96000000000004a336 336 0 0 1-368.384 420.224 48 48 0 1 0-12.544 95.168 432 432 0 0 0 473.664-540.16l57.28-15.36a12.8 12.8 0 0 0 6.272-20.928L833.6 56.44799999999998a12.8 12.8 0 0 0-22.144 5.888l-48.064 235.072A12.8 12.8 0 0 0 779.2 312.32000000000005l57.28-15.36z"  horiz-adv-x="1024" />

    
    <glyph glyph-name="aixin" unicode="&#58940;" d="M512-57.344c-28.672 18.432-57.344 36.352-85.504 55.296-34.304 23.552-68.608 46.592-100.864 72.704-49.152 39.936-96.768 80.896-143.36 123.392-23.04 20.992-44.544 45.056-63.488 70.144C33.28 375.808 9.216 499.712 51.2 635.392c5.632 17.92 11.776 35.84 20.48 52.736 9.728 18.944 31.744 25.6 48.64 18.432 17.92-8.192 25.088-26.112 18.432-48.128-9.216-30.208-22.016-59.392-27.648-90.112-14.848-86.528 1.024-167.936 53.76-239.616 19.456-26.624 40.448-52.224 65.024-73.728 57.856-50.688 117.76-99.328 177.664-147.968 30.208-24.576 62.976-46.592 94.208-69.632 10.24-7.68 17.92-6.656 28.16 1.024 69.12 52.224 140.8 102.4 208.384 156.672 39.424 31.744 77.824 67.584 109.056 107.52 81.408 102.912 102.912 216.064 51.2 340.992-38.912 94.208-160.256 119.808-237.568 65.024-38.912-27.648-75.264-57.856-113.664-86.528-27.136-20.48-35.328-20.48-61.952-1.024-35.84 26.624-71.68 53.248-107.008 80.896-28.16 20.992-19.968 51.2 10.752 68.096 6.144 3.072 18.944-0.512 26.112-5.12 33.792-22.528 66.048-47.104 100.864-71.68C550.912 720.384 583.68 748.544 619.52 773.12c56.832 38.912 119.808 49.664 186.88 34.304 88.064-19.968 141.312-77.824 168.96-161.28 9.216-27.136 14.848-54.784 22.016-82.432v-97.28c-1.536-4.608-3.584-8.704-4.096-13.312-9.216-65.536-34.304-125.44-73.216-178.176-21.504-29.184-46.08-56.832-72.192-81.408-43.52-40.448-89.088-78.848-135.168-116.224-29.696-24.064-61.952-46.08-93.696-67.584-33.792-23.04-68.608-44.544-102.912-66.56-1.024-0.512-2.56-0.512-4.096-0.512zM288.256 761.856c0-32.768-23.04-56.32-54.784-56.832-32.256 0-55.808 24.576-55.808 58.368 0.512 32.256 24.064 55.808 56.32 55.296 32.768 0 54.272-23.04 54.272-56.832z"  horiz-adv-x="1024" />

    
    <glyph glyph-name="aixin1" unicode="&#58917;" d="M509.1 630.4l-61.9 61.9c-84.7 84.7-222.2 84.7-306.9 0-84.7-84.7-84.7-222.2 0-306.9l61.9-61.9 285.9-285.9c11.6-11.6 30.3-11.6 41.9 0l286 285.9 61.9 61.9c84.7 84.7 84.7 222.2 0 306.9-84.7 84.7-222.2 84.7-306.9 0l-61.9-61.9zM486 81.6l285.9 285.9 61.9 61.9c46.3 46.3 67.3 108.2 63 168.7-5.9 83.8-73.4 151.3-157.2 157.2-60.5 4.3-122.5-16.7-168.7-63L509 630.4l-44 44-17.9 17.9c-84.7 84.7-222.2 84.7-306.9 0-84.7-84.7-84.7-222.2 0-306.9l17.9-17.9 44-44L444 81.6c11.7-11.6 30.4-11.6 42 0zM897.4 583.2c-0.1 70.5-57.1 127.4-127.6 127.5-55.6 0-111.2-21.1-153.6-63.5l-61.9-61.9-61.9 61.9c-84.7 84.7-222.2 84.7-306.9 0-84.7-84.7-84.7-222.2 0-306.9l61.9-61.9 49.3-49.3 147.4-147.4c11.6-11.6 30.3-11.6 41.9 0l285.9 285.9 61.9 61.9c42.5 42.4 63.7 98 63.6 153.7z"  horiz-adv-x="1024" />

    
    <glyph glyph-name="28fuwenbenkuang" unicode="&#58920;" d="M224.7 575.3h95.6v-159.4c0-17.6 14.3-31.9 31.9-31.9 17.6 0 31.9 14.3 31.9 31.9V575.3h95.6c17.6 0 31.9 14.3 31.9 31.9 0 17.6-14.3 31.9-31.9 31.9h-255c-17.6 0-31.9-14.3-31.9-31.9 0.1-17.6 14.3-31.9 31.9-31.9zM607.3 575.3h191.3c17.6 0 31.9 14.3 31.9 31.9 0 17.6-14.3 31.9-31.9 31.9H607.3c-17.6 0-31.9-14.3-31.9-31.9s14.3-31.9 31.9-31.9zM798.6 447.8H607.3c-17.6 0-31.9-14.3-31.9-31.9 0-17.6 14.3-31.9 31.9-31.9h191.3c17.6 0 31.9 14.3 31.9 31.9 0 17.6-14.3 31.9-31.9 31.9zM798.6 320.3H224.7c-17.6 0-31.9-14.3-31.9-31.9 0-17.6 14.3-31.9 31.9-31.9h573.9c17.6 0 31.9 14.3 31.9 31.9 0 17.6-14.3 31.9-31.9 31.9zM798.6 192.7H224.7c-17.6 0-31.9-14.3-31.9-31.9s14.3-31.9 31.9-31.9h573.9c17.6 0 31.9 14.3 31.9 31.9s-14.3 31.9-31.9 31.9zM920.1-63.3H104.2c-21.7 0-39.3 17.6-39.3 39.3V791.8c0 21.7 17.6 39.3 39.3 39.3h815.9c21.7 0 39.3-17.6 39.3-39.3v-815.9c-0.1-21.6-17.7-39.2-39.3-39.2zM121-7.2h782.2V775H121v-782.2z"  horiz-adv-x="1024" />

    
    <glyph glyph-name="mofang" unicode="&#59093;" d="M1145.66116431 333.857339H857.51748431c-25.014886 0-47.757052-10.049316-64.253719-26.233484-16.490686-16.188654-26.728399-38.522626-26.728398-63.079978v-282.87007c0-24.621646 10.237712-46.991503 26.728398-63.196604 16.495172-16.208091 39.237337-26.258902 64.253719-26.258902h288.14368a91.557774 91.557774 0 0 1 64.25671 26.239464c16.496667 16.187158 26.729894 38.521131 26.729893 63.076988V244.540887c0 24.558847-10.233227 46.891324-26.729893 63.079978a91.551793 91.551793 0 0 1-64.25671 26.236474z m8.948841-230.752982v-141.435035c0-2.328044-1.051134-4.523014-2.694371-6.136348-1.644733-1.619314-3.881569-2.648019-6.255965-2.648019H857.51598931c-2.3729 0-4.606746 1.034686-6.25746 2.648019-1.640247 1.613333-2.694371 3.808303-2.694371 6.136348V244.53939200000002c0 2.331035 1.048143 4.528995 2.694371 6.142328 1.646228 1.614828 3.884559 2.645029 6.25746 2.645029h288.14368c2.375891 0 4.608241-1.033191 6.255965-2.645029 1.641742-1.613333 2.694371-3.812789 2.694371-6.142328v-141.435035zM1145.66415531 896.001495H857.52496031c-25.020867 0-47.763032-10.050811-64.2597-26.24096-16.490686-16.184168-26.728399-38.519636-26.728398-63.076987v-282.868575c0-24.626131 10.237712-46.994494 26.729894-63.202585a91.511422 91.511422 0 0 1 64.259699-26.257407h288.139195a91.553288 91.553288 0 0 1 64.253719 26.239465c16.493677 16.191644 26.728399 38.519636 26.728398 63.076987V806.683548c0 24.555857-10.234722 46.888334-26.728398 63.076987a91.551793 91.551793 0 0 1-64.255214 26.24096z m8.953326-230.752982v-141.43354c0-2.328044-1.052629-4.526005-2.697362-6.140833-1.646228-1.614828-3.881569-2.648019-6.258955-2.648019H857.51897931c-2.375891 0-4.608241 1.036181-6.257459 2.648019-1.641742 1.614828-2.697361 3.812789-2.697362 6.140833V806.683548c0 2.325054 1.052629 4.523014 2.697362 6.137843 1.646228 1.614828 3.883064 2.648019 6.257459 2.648019H1145.66116431c2.377386 0 4.609737-1.037677 6.258955-2.648019 1.641742-1.614828 2.697361-3.812789 2.697362-6.137843v-141.435035zM616.07673131-128H299.20704931c-54.446627 0-98.742264 47.954419-98.742264 106.900138v807.429098c0 58.944223 44.295637 106.900138 98.742264 106.900137h316.869682c54.446627 0 98.742264-47.955915 98.742264-106.900137v-807.429098c0-58.945718-44.295637-106.900138-98.742264-106.900138z m-316.869682 946.468804c-12.999368 0-23.981695-14.718861-23.981695-32.139568v-807.429098c0-17.420708 10.982328-32.139569 23.981695-32.139569h316.869682c12.999368 0 23.981695 14.718861 23.981695 32.139569v807.429098c0 17.420708-10.982328 32.139569-23.981695 32.139568H299.20704931z"  horiz-adv-x="1419" />

    
    <glyph glyph-name="huodong-copy" unicode="&#58916;" d="M465.973698 702.247961H313.337756c-10.552195 0-18.655532 2.097951-24.307512 6.306341-5.65198 4.200898-9.608117 9.536937-11.869659 16.004371-2.264039 6.468683-3.390439 13.740332-3.390439 21.824937 0 8.082107 0.749268 15.680937 2.259044 22.796488 0.753015 7.110556 2.26279 14.871727 4.525581 23.282263 2.257795 8.404293 5.463415 15.519844 9.608117 21.339161 4.143454 5.821815 9.611863 9.700527 16.390244 11.64238 6.784624 1.936859 15.077776 0.318439 24.878205-4.854009 11.30521-5.821815 24.118946-12.123161 38.442458-18.91403a2218.323668 2218.323668 0 0 0 41.8304-20.370107c13.566751-6.790868 26.193171-12.934868 37.876761-18.432 11.681093-5.495883 20.537444-9.860371 26.567805-13.09721 7.540137-4.52558 13.193366-9.536937 16.963434-15.032819 3.766322-5.497132 5.276098-10.66958 4.519337-15.519844-0.754263-4.850263-3.771317-8.893815-9.046166-12.126907-5.277346-3.230595-12.813737-4.849015-22.611668-4.849015z m88.188878 0.970302h151.505795c10.549698 0 18.654283 2.097951 24.306263 6.305093 5.653229 4.203395 9.608117 9.538185 11.870907 16.00562 2.264039 6.462439 3.390439 13.737834 3.390439 21.824936 0 8.082107-0.372137 15.682185-1.1264 22.796488a1159.769912 1159.769912 0 0 1-5.090029 22.791493c-1.881912 8.085854-4.900215 15.039063-9.043668 20.85838-4.148449 5.821815-9.611863 9.700527-16.395239 11.642381-6.784624 1.936859-15.071532 0.641873-24.874459-3.883708-11.30521-5.820566-24.117698-12.126907-38.439961-18.91278a4469.046946 4469.046946 0 0 1-42.396097-20.375103 3285.129366 3285.129366 0 0 0-38.44121-18.427004c-11.681093-5.495883-20.16281-9.864117-25.437658-13.09721-8.293151-4.526829-14.322263-9.536937-18.09483-15.034069-3.766322-5.495883-5.276098-10.66958-4.520585-15.519843 0.754263-4.85401 3.772566-8.895063 9.047415-12.125659 5.2736-3.23559 13.187122-4.849015 23.739317-4.849015z m-104.01842-64.024975H122.263102c-24.117698 0-39.761171-3.394185-46.921678-10.183805-7.160507-6.792117-10.738263-17.624039-10.738263-32.495766v-85.364137c0-16.166712 3.954888-28.131278 11.869659-35.888702 7.91602-7.76242 23.559493-11.641132 46.922926-11.641132h326.74841V639.1932879999999z m123.237151 0h323.35922c24.117698 0 40.514185-4.041054 49.179473-12.126908 8.669034-8.080859 13.002302-19.559649 13.002302-34.431375v-83.423532c0-15.519844-3.954888-26.998634-11.869658-34.437619-7.91602-7.438985-23.552-11.155356-46.922927-11.155356H573.381307V639.1932879999999z m-123.237151-226.987083H103.043122v-366.666927c0-32.986537 10.929327-58.527844 32.789229-76.63641 21.8624-18.10482 55.77678-27.159727 101.754381-27.159727h212.557424V412.206205z m123.237151 0h345.969639v-363.759766c-0.749268-32.979044-11.681093-59.007376-32.782985-78.087493-21.106888-19.073873-54.651629-28.614556-100.629229-28.614556H573.381307V412.206205z m0 0"  horiz-adv-x="1025" />

    
    <glyph glyph-name="bianji1" unicode="&#58915;" d="M857.4 173.3c-4-84-73.5-151.2-158.3-151.2H324.8c-84.8 0-154.3 67.1-158.3 151.2h-0.2V596.7h0.2c4 84.1 73.5 151.3 158.3 151.3H640l-68.3-57.7H324.8C269.3 690.1 224 644.7 224 589v-408c0-55.7 45.3-101.1 100.8-101.1H699.1c55.6 0 100.8 45.4 100.8 101.1V466.5l57.6 56.8v-350h-0.1zM658.4 427l-41.8-44.1c-13.9-14.2-48.9-49.7-60-61.5-11.1-11.8-20.4-21.5-27.6-29.2-7.3-7.6-11.7-12-13-13.1-3.5-3.2-7.5-6.7-12-10.3-4.5-3.6-9.2-6.5-14.1-8.7-4.9-2.6-12-5.6-21.4-9.3-9.4-3.6-19.2-7.1-29.5-10.6s-20-6.4-29.2-9c-9.2-2.5-16.1-4.2-20.6-4.9-9.4-1.1-15.6 0.4-18.8 4.4-3.1 4-4 10.8-2.6 20.1 0.7 5.1 2.4 12.5 5 22.1 2.6 9.6 5.4 19.6 8.3 30 3 10.3 5.8 19.9 8.6 28.6 2.8 8.7 5 14.7 6.8 18 2.1 5 4.4 9.7 7.1 13.9 2.6 4.2 6.3 8.8 11.2 13.9 2.1 2.2 7 7.4 14.6 15.5 7.6 8.2 39.7 40.8 51.2 52.8l38.1 39.8 42.3 44.1 108 112.8 98.4-99.8-109-115.5z m176.5 186c-5.2-5.4-9.8-10.2-14-14.2-4.1-4.1-7.7-7.7-10.7-10.8-3.5-3.6-6.7-6.8-9.7-9.5l-97.9 99.8c5.2 5 11.4 11 18.5 18s13.1 12.5 17.9 16.6c6.1 5 12.4 8.5 18.9 10.5 6 1.9 11.8 2.8 17.6 2.7h1.6c3.2-0.1 6.3-0.4 9.4-1h-0.3 0.3c13.2-2.5 27-9.6 38.7-20.9 6.5-6.3 11.8-13.4 15.6-20.6 5.7-10.7 8.4-21.9 7.8-32.1 0-1.2 0.1-2.5 0.1-3.8 0-5.9-1.1-11.8-3.3-17.7-2.2-5.9-5.7-11.6-10.5-17z m0 0"  horiz-adv-x="1024" />

    
    <glyph glyph-name="zhibo" unicode="&#59092;" d="M989.54907598 681.7860430000001c138.917471 0 251.530804-109.866301 251.530804-245.394518v-319.011976c0-135.528218-112.613332-245.394519-251.530804-245.394519H436.19208598c-138.92346 0-251.530804 109.866301-251.530804 245.394519V436.391525c0 135.528218 112.607344 245.394519 251.530804 245.394518h553.35699z m0-73.621948H436.19208598c-46.701037 0-91.484392-18.097475-124.501168-50.307358-33.022765-32.217368-51.570843-75.909395-51.570844-121.465212v-319.011976c0-45.555817 18.549575-89.247844 51.570844-121.463715 33.016777-32.212877 77.800131-50.307358 124.501168-50.307359h553.35699c46.695049 0 91.478403 18.095978 124.501169 50.307359 33.016777 32.215871 51.570843 75.907898 51.570843 121.463715V436.391525c0 94.870651-78.830081 171.77257-176.072012 171.77257z m0 0M662.56397098 490.401014c20.512169 0.010479 40.638106-5.42071 58.229589-15.705238l160.775461-94.135614c33.27127-19.477728 53.988531-54.222066 54.912192-92.066732 0.914679-37.84317-18.101966-73.509672-50.385204-94.505378L725.37144698 89.45413699999995c-34.732362-22.600512-79.394458-24.712807-116.210672-5.498555-36.808729 19.22024-59.786489 56.644244-59.786489 97.375166V379.949378c0 60.993087 50.680116 110.42918 113.188188 110.42918v0.022456z m0-73.615961c-20.835525 0-37.726402-16.479197-37.726402-36.807231v-198.645577c-0.011976-13.580966 7.643784-26.061622 19.914858-32.468868 12.266582-6.414731 27.160435-5.712628 38.738387 1.820376l160.775461 104.563856c10.769562 6.992581 17.11543 18.887902 16.810038 31.509278-0.303895 12.615388-7.218631 24.202323-18.317537 30.694899l-160.775461 94.113158a38.501858 38.501858 0 0 1-19.417847 5.200648v0.019461zM590.07676398 886.98258L260.72486998 611.601253c-15.654339-13.266592-17.395373-36.373096-3.907222-51.741504 13.492642-15.359426 37.166516-17.218724 53.003492-4.160218L639.17303298 831.080858c10.33842 8.525529 15.203736 21.808588 12.745629 34.799728-2.459604 12.986649-11.865381 23.697827-24.645441 28.055652-12.781557 4.363813-26.976301 1.7081-37.196457-6.953658z m0 0"  horiz-adv-x="1445" />

    
    <glyph glyph-name="shouye" unicode="&#58905;" d="M674.47 13.81H348.26a81.85 81.85 0 0 0-81.74 81.74V339.41a34.91 34.91 0 1 0 69.81 0v-243.86a11.94 11.94 0 0 1 11.93-11.93h326.21a11.94 11.94 0 0 1 11.93 11.93V339.41a34.91 34.91 0 0 0 69.81 0v-243.86a81.85 81.85 0 0 0-81.74-81.74zM801 417.54a34.79 34.79 0 0 0-24.68 10.23l-252.1 252.14a18.55 18.55 0 0 1-25.63 0L246.4 427.76a34.9 34.9 0 1 0-49.4 49.36l252.19 252.15c33.13 33.2 91.18 33.27 124.39 0l252.14-252.15A34.91 34.91 0 0 0 801 417.54zM577 145.69a34.89 34.89 0 0 0-34.91 34.91v98.24a34.91 34.91 0 0 0 69.81 0v-98.24a34.89 34.89 0 0 0-34.9-34.91z"  horiz-adv-x="1024" />

    
    <glyph glyph-name="xinbaniconshangchuan-" unicode="&#58937;" d="M928 172.79999999999995h-64v198.4C864 554.666667 714.666667 704 531.2 704S198.4 554.666667 198.4 371.20000000000005v-198.4h-64v198.4C134.4 590.933333 311.466667 768 531.2 768s396.8-177.066667 396.8-396.8v-198.4zM277.333333 29.866667000000007h-21.333333c-68.266667 0-121.6 55.466667-121.6 121.6V234.66666699999996c0 68.266667 55.466667 121.6 121.6 121.6h21.333333c68.266667 0 121.6-55.466667 121.6-121.6v-83.2c0-68.266667-55.466667-121.6-121.6-121.6z m-21.333333 264.533333c-32 0-57.6-25.6-57.6-57.6v-83.2c0-32 25.6-57.6 57.6-57.6h21.333333c32 0 57.6 25.6 57.6 57.6V234.66666699999996c0 32-25.6 57.6-57.6 57.6h-21.333333zM806.4 29.866667000000007h-19.2c-68.266667 0-121.6 55.466667-121.6 121.6V234.66666699999996c0 68.266667 55.466667 121.6 121.6 121.6h19.2c68.266667 0 121.6-55.466667 121.6-121.6v-83.2c0-68.266667-55.466667-121.6-121.6-121.6z m-21.333333 264.533333c-32 0-57.6-25.6-57.6-57.6v-83.2c0-32 25.6-57.6 57.6-57.6h19.2c32 0 57.6 25.6 57.6 57.6V234.66666699999996c0 32-25.6 57.6-57.6 57.6h-19.2zM753.066667 428.8c-12.8 0-25.6 8.533333-29.866667 21.333333-21.333333 61.866667-76.8 89.6-76.8 89.6-14.933333 8.533333-21.333333 27.733333-12.8 42.666667s27.733333 21.333333 42.666667 12.8c2.133333-2.133333 76.8-40.533333 106.666666-125.866667 6.4-17.066667-2.133333-34.133333-19.2-40.533333h-10.666666z"  horiz-adv-x="1024" />

    
    <glyph glyph-name="3" unicode="&#58907;" d="M85.376 725.290667h109.184c27.136 0 56.362667-23.338667 62.250667-49.664l86.869333-388.565334c14.634667-65.536 78.165333-116.437333 145.664-116.437333h272.341333c66.816 0 131.2 51.114667 146.176 115.84l70.272 303.488c16.810667 72.576-33.408 135.04-108.16 135.04h-272.213333a42.666667 42.666667 0 0 1 0-85.333333h272.213333c20.053333 0 29.44-11.605333 25.045334-30.464l-70.272-303.488c-6.058667-26.026667-35.925333-49.706667-63.061334-49.706667H489.301333c-27.52 0-56.448 23.125333-62.378666 49.664L340.096 694.229333C325.461333 759.552 261.589333 810.624 194.56 810.624H85.333333a42.666667 42.666667 0 1 1 0-85.333333zM405.376 21.290666999999985m-64 0a64 64 0 1 1 128 0 64 64 0 1 1-128 0ZM789.376 21.290666999999985m-64 0a64 64 0 1 1 128 0 64 64 0 1 1-128 0Z"  horiz-adv-x="1024" />

    
    <glyph glyph-name="liulan" unicode="&#58904;" d="M159.5 611.5c-11-0.1-20.1 8.8-20.2 19.8-0.1 11 8.8 20.1 19.8 20.2 0.6 0 64.7 1 155.9 1 11 0 20-9 20-20s-9-20-20-20c-90.9 0-154.6-1-155.3-1h-0.2z m0 0M388.3 538.7c-51.5 0-93.2 41.7-93.2 93.2s41.7 93.2 93.2 93.2 93.2-41.7 93.2-93.2c0-51.4-41.7-93.1-93.2-93.2z m0 146.5c-21.5 0-40.9-13-49.2-32.9-8.2-19.9-3.7-42.8 11.6-58 15.2-15.2 38.1-19.8 58-11.5s32.8 27.7 32.8 49.2c0 29.4-23.8 53.2-53.2 53.2zM834.6 612h-278c-11 0-20 9-20 20s9 20 20 20h278c11 0 20-9 20-20 0-11.1-9-20-20-20z m0-243.9h-0.9c-0.6 0-25.3 1-114.7 1-11 0-20 9-20 20s9 20 20 20c91.5 0 115.5-1 116.5-1 11-0.2 19.8-9.4 19.6-20.4-0.3-11.1-9.4-19.9-20.5-19.6z m0 0M645.8 295.4c-51.5 0-93.2 41.7-93.2 93.2s41.7 93.2 93.2 93.2 93.2-41.7 93.2-93.2c-0.1-51.5-41.8-93.2-93.2-93.2z m0 146.4c-29.4 0-53.2-23.8-53.2-53.2 0-29.4 23.8-53.2 53.2-53.2 29.4 0 53.2 23.8 53.2 53.2 0 29.4-23.8 53.2-53.2 53.2z m-166.6-73.2H159.5c-11 0-20 9-20 20s9 20 20 20h319.7c11 0 20-9 20-20 0-11.1-9-20-20-20zM159.5 108.2c-11-0.1-20.1 8.8-20.2 19.8-0.1 11 8.8 20.1 19.8 20.2 0.6 0 64.7 1 155.9 1 11 0 20-9 20-20s-9-20-20-20c-90.9 0-154.6-1-155.3-1h-0.2z m0 0M388.3 35.5c-51.5 0-93.2 41.8-93.2 93.2 0 51.5 41.8 93.2 93.2 93.2 51.5 0 93.2-41.7 93.2-93.2 0-51.4-41.7-93.1-93.2-93.2z m0 146.5c-29.4 0-53.2-23.8-53.2-53.2 0-29.4 23.8-53.2 53.2-53.2 29.4 0 53.2 23.8 53.2 53.2 0 29.3-23.8 53.2-53.2 53.2z m446.3-73.2h-278c-11 0-20 9-20 20s9 20 20 20h278c11 0 20-9 20-20 0-11.1-9-20-20-20z m0 0"  horiz-adv-x="1024" />

    
    <glyph glyph-name="shouyikehu" unicode="&#58927;" d="M690.022384 327.154017c80.844624 56.429824 133.850403 149.995755 133.850403 256.065245 0 172.446824-139.796535 312.245357-312.243359 312.245357s-312.241361-139.798533-312.241361-312.245357c0-105.942636 52.885917-199.401691 133.567729-255.853489C151.005948 256.055136 21.956001 79.337245 21.956001-127.895401c0-0.019977 0.001998-0.059931 0.001998-0.059931l87.664747 0c0 0.24272-0.035958 0.47645-0.035958 0.718171 0 205.493655 154.707313 374.444517 353.945193 397.746603 2.114558 0.189781 56.004315 4.938296 100.227238-0.756127 1.149672-0.152823 2.300343-0.305647 3.447019-0.46746 0.170803-0.023972 0.340607-0.049942 0.511409-0.074913 194.313568-27.762934 343.78393-194.460398 343.78393-396.448102 0-0.241721-0.035958-0.475451-0.035958-0.718171l88.976232 0.019977c0 0 0.001998 0.019977 0.001998 0.039954C1000.444846 79.121495 871.67058 255.697549 690.022384 327.154017zM511.720323 349.224526c-129.187788 0-233.909834 104.723045-233.909834 233.907836 0 129.182794 104.723045 233.905839 233.909834 233.905839 129.180796 0 233.905839-104.723045 233.905839-233.905839C745.626162 453.947571 640.901119 349.224526 511.720323 349.224526z"  horiz-adv-x="1024" />

    
    <glyph glyph-name="xinjiankehu" unicode="&#58903;" d="M46.241324-109.860317a44.605779 44.605779 0 0 0-44.605779 44.605779 511.925657 511.925657 0 0 0 511.330914 511.330914 44.605779 44.605779 0 1 0 0-89.211558A422.416727 422.416727 0 0 1 90.847103-65.254538a44.605779 44.605779 0 0 0-44.605779-44.605779zM512.966459 356.864818a269.567591 269.567591 0 1 0 269.567591 269.567591 269.864963 269.864963 0 0 0-269.567591-269.567591z m0 449.923624a180.356033 180.356033 0 1 1 180.356033-180.356033A180.504719 180.504719 0 0 1 512.966459 806.788442zM596.081893 134.728038m44.605779 0l337.071004 0q44.605779 0 44.605779-44.605779l0 0q0-44.605779-44.605779-44.605779l-337.071004 0q-44.605779 0-44.605779 44.605779l0 0q0 44.605779 44.605779 44.605779ZM853.75461 308.393205m0-44.605779l0-347.181647q0-44.605779-44.605779-44.605779l0 0q-44.605779 0-44.605779 44.605779l0 347.181647q0 44.605779 44.605779 44.605779l0 0q44.605779 0 44.605779-44.605779Z"  horiz-adv-x="1024" />

    
    <glyph glyph-name="xiayi" unicode="&#59090;" d="M533.884426-59.899996c0.25992 0.066515 0.520863 0.384763 0.780783 0.508583 7.196912 3.060709 14.090926 7.274684 20.034289 13.141298 0.055259 0.066515 0.055259 0.13303 0.124843 0.190335 0.055259 0.066515 0.12382 0.066515 0.190335 0.124843l317.67313 316.780807c24.870434 24.879644 25.073048 65.197908 0.1361 90.202395-24.880667 24.949228-65.264423 25.006534-90.202395 0.124843l-199.503776-191.83819 0 593.988316c0 35.218106-35.638685 63.794955-70.848605 63.794955S441.407222 798.542364 441.407222 763.323235l0-597.377506L239.241826 363.354797c-24.814152 25.074072-65.131393 25.25622-90.205465 0.508583-12.620435-12.440333-18.938328-28.892027-18.938328-45.356001 0-16.202007 6.181793-32.407084 18.431791-44.847417l315.954999-319.469032C483.185744-64.612321 510.7311-69.402417 533.884426-59.899996L533.884426-59.899996 533.884426-59.899996 533.884426-59.899996z"  horiz-adv-x="1024" />

    
    <glyph glyph-name="shangyi" unicode="&#59091;" d="M533.884426 822.370049 533.884426 822.370049 533.884426 822.370049c-23.153326 9.502421-50.698682 4.712325-69.399603-14.090926L148.529825 488.810091c-12.249999-12.440333-18.431791-28.64541-18.431791-44.847417 0-16.463973 6.317892-32.915667 18.938328-45.356001 25.074072-24.747637 65.391313-24.565489 90.205465 0.508583L441.407222 596.524325l0-597.377506c0-35.219129 35.651988-63.794955 70.861908-63.794955s70.848605 28.576849 70.848605 63.794955l0 593.988316 199.503776-191.83819c24.937972-24.88169 65.321728-24.824385 90.202395 0.124843 24.936949 25.004487 24.734334 65.322751-0.1361 90.202395L555.014676 808.404989c-0.066515 0.058328-0.135076 0.058328-0.190335 0.124843-0.069585 0.057305-0.069585 0.12382-0.124843 0.190335-5.943362 5.866614-12.837376 10.080589-20.034289 13.141298C534.405289 821.985286 534.144346 822.303534 533.884426 822.370049L533.884426 822.370049z"  horiz-adv-x="1024" />

    
    <glyph glyph-name="dizhi4" unicode="&#58950;" d="M508.8 319.3c69.3 0 125.4 56.2 125.4 125.4S578 570.1 508.8 570.1 383.4 514 383.4 444.7s56.1-125.4 125.4-125.4z m0-376.2C258 139 132.5 306.2 132.5 444.7 132.5 652.5 301 821 508.8 821s376.3-168.5 376.3-376.3c0-138.5-125.5-305.7-376.3-501.6z"  horiz-adv-x="1024" />

    
    <glyph glyph-name="xiajiantou-tianchong" unicode="&#59194;" d="M512 864C246.4 864 32 649.6 32 384s214.4-480 480-480 480 214.4 480 480S777.6 864 512 864z m272-371.2l-249.6-249.6c-12.8-12.8-32-12.8-44.8 0l-249.6 249.6c-12.8 12.8-12.8 32 0 44.8 12.8 12.8 32 12.8 44.8 0l227.2-227.2 227.2 227.2c12.8 12.8 32 12.8 44.8 0 12.8-12.8 12.8-32 0-44.8z"  horiz-adv-x="1024" />

    
    <glyph glyph-name="xiangshangyuanjiantoushangjiantouxiangshangmianxing" unicode="&#58926;" d="M512 839.111c251.364 0 455.111-203.747 455.111-455.111S763.364-71.111 512-71.111 56.889 132.636 56.889 384 260.636 839.111 512 839.111z m-179-532.11l179 179 179-179a28.444 28.444 0 0 1 40.221 40.22l-199.11 199.111a28.444 28.444 0 0 1-40.221 0l-199.111-199.11A28.444 28.444 0 0 1 332.999 307z"  horiz-adv-x="1024" />

    
    <glyph glyph-name="lunbotu" unicode="&#59079;" d="M482.94562798-18.104015000000004c30.347984 0 54.944984-24.601513 54.944983-54.947992 0-30.344975-24.601513-54.941975-54.944983-54.941976-30.346479 0-54.944984 24.601513-54.944984 54.941976 0 30.346479 24.600009 54.947993 54.944984 54.947992z m219.794978 0c30.347984 0 54.949497-24.601513 54.949497-54.947992-0.001504-30.344975-24.601513-54.947993-54.949497-54.947993-30.346479 0-54.941975 24.603017-54.941975 54.947993-0.004513 30.346479 24.595496 54.947993 54.941975 54.947992z m219.793475 0c30.347984 0 54.947993-24.601513 54.947992-54.947992 0-30.344975-24.601513-54.941975-54.947992-54.941976-30.350992 0-54.951001 24.601513-54.951001 54.941976 0 30.346479 24.601513 54.947993 54.951001 54.947992z m137.372238 914.104015c91.040943 0 164.845482-77.827069 164.845482-173.84277v-463.574703c0-46.104144-17.370287-90.326394-48.285397-122.924828-30.915109-32.604451-72.844789-50.92095-116.560085-50.920951H345.57790298c-43.721315 0-85.64949 18.316499-116.560086 50.920951-30.918118 32.598434-48.285396 76.816171-48.285396 122.924828V722.155726c0 96.012693 73.806044 173.84277 164.845482 173.84277l714.328416 0.001504z m0-82.421237H345.57790298c-43.646099 0-79.72551-35.381411-82.287353-80.700304l-0.138397-5.031922v-457.220491c0-45.394109 34.017-82.925181 77.589388-85.587812l4.836362-0.144414h714.328416c43.64309-0.003009 79.72551 35.382915 82.278327 80.700304l0.141405 5.033427V727.846537c0.006017 45.398622-34.013991 82.925181-77.58337 85.589317l-4.836362 0.142909zM703.67478398 419.874825l4.753625-5.687803 6.507652-8.103727a132.424557 132.424557 0 0 1 196.82414-18.077313l5.385435 5.296681 31.048993 32.476585c10.044289 10.342143 26.370584 11.161993 37.400197 1.874372 11.026605-9.286116 13.004774-25.516135 4.518952-37.177558l-2.19479-2.637059-31.047489-32.473576a187.530502 187.530502 0 0 0-24.097569-21.236368c-81.323089-60.11079-195.203996-44.673544-257.077839 32.857176l-4.231629 5.496755-5.796113 7.198131c-54.302643 67.284853-152.383764 78.919199-220.920203 26.208118a27.480766 27.480766 0 0 0-33.522082 43.551327c89.933769 69.157721 218.188374 56.195067 292.44872-29.565741zM922.53408098 758.630771c60.692959 0 109.894481-49.204531 109.894481-109.902003 0-60.692959-49.201522-109.894481-109.894481-109.89448-60.698976 0-109.900498 49.201522-109.900498 109.89448C812.63508698 709.42624 861.83811298 758.630771 922.53408098 758.630771z m0-54.951001c-30.350992 0-54.951001-24.601513-54.951001-54.947993 0-30.344975 24.601513-54.94348 54.951001-54.943479 30.347984 0 54.947993 24.601513 54.947992 54.943479 0.001504 30.347984-24.600009 54.947993-54.947992 54.947993z"  horiz-adv-x="1421" />

    
    <glyph glyph-name="biaotilan" unicode="&#59080;" d="M227.82241866 340.99519699999996c2.375337-1.946219 4.950043-3.019013 7.64437-3.019013H787.36713366c2.162677 0 4.249404 0.69874 6.222206 1.984194 6.019039 2.299387 11.403896 6.493727 15.727351 12.064662 6.734868 8.681088 10.902626 20.677394 10.902626 33.921179 0 13.243785-4.167758 25.236294-10.902626 33.913585-6.740565 8.679189-16.042544 14.046957-26.32238 14.046957a29.316709 29.316709 0 0 1-6.191825-0.672158H247.02638166a29.274937 29.274937 0 0 1-6.191825 0.672158c-2.202551 0-4.353835-0.260129-6.451955-0.732918a11.054526 11.054526 0 0 1-3.560157-1.036718c-6.252586-2.248121-11.846305-6.527905-16.310268-12.27922-6.734868-8.67729-10.902626-20.673597-10.902626-33.913584 0-13.247583 4.165859-25.240092 10.902626-33.92118 3.736741-4.811434 8.265261-8.60134 13.310242-11.027944zM1166.91598766 896H265.28856566c-114.914286 0-208.068889-98.237559-208.068889-219.425316v-585.126583c0-58.192909 21.921076-114.01048 60.946097-155.156405 39.019325-41.155419 91.937504-64.274607 147.122792-64.274607h901.627422c55.183389 0 108.107265 23.119187 147.124691 64.274607 39.019325 41.145926 60.944198 96.9597 60.944198 155.156405V676.5727850000001c0 121.187758-93.1603 219.427215-208.068889 219.427215z m104.030647-801.766431l-0.176584-6.463347c-3.224079-58.23658-48.771308-103.705961-103.854063-103.700265H265.28856566l-6.104483 0.18228c-54.997311 3.421549-97.933759 51.649814-97.933759 109.985129V681.794349l0.174685 6.467145c3.233572 58.238479 48.775106 103.705961 103.863557 103.70596h901.627422l6.104483-0.184179c54.993514-3.423447 97.933759-51.647915 97.926164-109.990825v-587.558881zM1195.70104666 184.09004200000004H241.25797766c-10.374773 0-19.78688-5.308907-26.605293-13.914044-6.818413-8.607037-11.043134-20.517899-11.043134-33.72371 0-13.200114 4.19434-25.107179 10.997564-33.714215 6.803223-8.60134 16.21533-13.910247 26.650863-13.910247h954.570285c10.376672 0 19.784981 5.308907 26.605294 13.910247 6.818413 8.607037 11.039336 20.514102 11.039336 33.714215 0 13.20581-4.256999 25.116673-11.103894 33.72371-6.852591 8.607037-16.29128 13.914044-26.667952 13.914044zM277.42727766 488.05723h27.953407V678.720272h62.163196V703.474283h-152.000682v-24.754011h61.884079zM400.64290166 703.474283h27.811v-215.417053H400.64290166zM524.41295966 488.05723h27.953406V678.720272h62.163197V703.474283h-152.000683v-24.754011h61.88408zM761.24792066 512.672632h-85.806439V703.474283h-27.812899v-215.417053h113.619338zM909.63528066 512.672632h-88.031775v72.454425h77.045604V609.7424599999999h-77.045604V678.720272h83.163378V703.474283h-110.976277v-215.417053h115.844674z"  horiz-adv-x="1421" />

    
    <glyph glyph-name="fengefu" unicode="&#59081;" d="M1166.94528166 896H265.28943766c-57.459903 0-109.477816-24.563012-147.131228-64.270937-37.65531-39.707924-60.944221-94.568356-60.94422-155.163195v-585.145027c0-29.095473 5.479967-57.602314 15.839877-83.974893 10.358011-26.372579 25.594066-50.612793 45.108141-71.186404 19.508379-20.577409 42.493479-36.645143 67.502712-47.569 25.007334-10.923857 52.031204-16.703836 79.628515-16.703836h901.653946c27.589716 0 54.621182 5.779979 79.628515 16.703836 25.009233 10.923857 47.994333 26.991591 67.504611 47.569 19.508379 20.573611 34.748231 44.817623 45.108141 71.186404 10.356112 26.372579 15.841776 54.873724 15.841776 83.974893V676.565868c0 60.596738-23.294607 115.45717-60.948018 155.163195-37.662906 39.709823-89.680818 64.270937-147.136924 64.270937z m104.037724-789.375384l-0.087345-3.17671-0.089244-3.174811c-1.613989-28.601782-13.806251-54.066729-32.481052-72.378857-18.6767-18.315926-43.835938-29.480931-71.380083-29.479033H265.28943766l-3.051389 0.089244-3.049489 0.089245c-27.498573 1.680447-51.983734 14.364501-69.593303 33.79123-17.607669 19.42673-28.343544 45.594237-28.343543 74.24349V683.747169l0.087345 3.174811 0.087345 3.174811c1.619685 28.601782 13.810048 54.070527 32.486748 72.384554 18.674801 18.315926 43.83404 29.480931 71.380083 29.480931h901.653946l3.051388-0.091143 3.053287-0.089244c27.492877-1.682346 51.978038-14.362602 69.585707-33.791231 17.607669-19.422932 28.345443-45.592338 28.343544-74.245388v-577.120654zM1131.95779966 437.160047h-831.678982c-16.255716 0-30.971497-5.950872-41.621925-15.572144C248.00456566 411.96663 241.41569366 398.674957 241.41569366 383.99335399999995c0-14.679704 6.590771-27.971377 17.241199-37.594548C269.30921866 336.77753299999995 284.02500066 330.82666099999994 300.27881766 330.82666099999994h831.678982c16.257615 0 30.973396 5.950872 41.623825 15.572145 10.650428 9.619374 17.2393 22.911047 17.2393 37.594548s-6.588872 27.973276-17.2393 37.594549c-10.652327 9.621273-25.368108 15.572145-41.623825 15.572144z"  horiz-adv-x="1421" />

    
    <glyph glyph-name="youhuiquan" unicode="&#59082;" d="M277.12877565 698.805216l583.632519 0.419942L350.82860665 823.995521C325.79776365 829.111924 301.32629665 813.050781 296.05405565 788.051105l-18.92528-89.245889z m-68.606393-14.264906a35.447375 35.447375 0 0 0-2.393342 22.025632l20.404919 96.20118A117.503397 117.503397 0 0 0 366.12532465 893.390946l1.008845-0.231296 791.740055-193.731082 14.292793 0.013123a117.414815 117.414815 0 0 0 83.830933-34.300736 117.454185 117.454185 0 0 0 34.48118-83.760396l-0.08202-98.294328a35.519552 35.519552 0 0 0-23.666031-33.469054c-69.159208-24.491152-115.429933-89.898768-115.477504-163.226229-0.08038-73.253643 46.088641-138.58416 115.169109-162.970326a35.514631 35.514631 0 0 0 19.95709-17.617882l0.982599-1.971759a35.465419 35.465419 0 0 0 3.740109-15.902024l-0.067257-98.266442a117.6822 117.6822 0 0 0-34.472978-83.210862 117.646111 117.646111 0 0 0-83.222345-34.451653l-909.435378 0.826761a117.441061 117.441061 0 0 0-83.830933 34.302376 117.445983 117.445983 0 0 0-34.48118 83.758756l0.08202 98.30089a35.521193 35.521193 0 0 0 23.666032 33.462492c69.162488 24.497714 115.423371 89.905329 115.477504 163.227869 0.08038 73.260204-46.087 138.58416-115.169109 162.968686a35.531035 35.531035 0 0 0-23.697199 33.529748l0.060694 98.05483a117.6822 117.6822 0 0 0 61.511669 104.10134l-0.00164 0.006562z m872.672403-398.10179c0.060695 94.80356 54.905784 180.201074 139.163221 220.364595l0.060695 74.867794a46.364228 46.364228 0 0 1-13.57758 33.139334 46.483977 46.483977 0 0 1-33.383753 13.572659l-908.501991-0.638115a46.613568 46.613568 0 0 1-33.224635-13.6596 46.779249 46.779249 0 0 1-13.66124-33.469054l-0.054133-74.564321c84.902114-40.463714 138.946688-126.171263 138.858106-220.22352-0.060695-94.80356-54.904143-180.202714-139.16322-220.367876l-0.060695-74.859593a46.37243 46.37243 0 0 1 13.57922-33.144255c8.777773-8.776133 20.710033-13.669442 33.441167-13.572658l909.702763-0.828402a46.603726 46.603726 0 0 1 32.962171 13.654679 46.62013 46.62013 0 0 1 13.638274 32.975294l0.060695 76.066926c-85.438524 40.253743-139.929287 126.248362-139.840705 220.692674l0.00164-0.006561z m-578.355356 150.344178h445.453538a35.785297 35.785297 0 0 0 31.543225-17.708104 35.806622 35.806622 0 0 0 0-36.174071 35.788578 35.788578 0 0 0-31.543225-17.708104H502.83942965c-19.509261 0.352686-35.148822 16.279316-35.148822 35.795139 0 19.517463 15.639561 35.442453 35.148822 35.79514z m0-230.932043h445.453538a35.806622 35.806622 0 0 0 31.543225-17.706463 35.821386 35.821386 0 0 0 0-36.182274 35.788578 35.788578 0 0 0-31.543225-17.708103H502.83942965a35.785297 35.785297 0 0 0-31.543226 17.708103 35.814824 35.814824 0 0 0 0 36.182274 35.814824 35.814824 0 0 0 31.543226 17.706463z"  horiz-adv-x="1430" />

    
    <glyph glyph-name="shangpin" unicode="&#59083;" d="M298.29550231 463.922025h269.687546c46.829617 0 85.154746 37.625326 85.154745 83.597119V812.399871c0 45.973299-38.326634 83.600129-85.154745 83.600129h-269.687546c-46.831122 0-85.157756-37.625326-85.157756-83.600129v-264.752806c0-46.099715 38.326634-83.72504 85.157756-83.72504zM289.91592531 812.399871c0 4.362858 3.935452 8.226072 8.379577 8.226072h269.687546c4.441116 0 8.375062-3.861709 8.375062-8.226072v-264.752806c0-4.359848-3.933947-8.224567-8.375062-8.224567h-269.687546c-4.444126 0-8.379577 3.861709-8.379577 8.224567V812.399871zM890.97752831 463.922025h269.686041c46.829617 0 85.15926 37.625326 85.15926 83.597119V812.399871c0 45.973299-38.329643 83.600129-85.15926 83.600129H890.97752831c-46.829617 0-85.156251-37.625326-85.156251-83.600129v-264.752806c0-46.099715 38.325129-83.72504 85.156251-83.72504z m0 356.705423h269.686041c4.436601 0 8.372053-3.861709 8.372052-8.226072V547.6485700000001c0-4.359848-3.930937-8.224567-8.372052-8.224567H890.97752831c-4.444126 0-8.379577 3.861709-8.379578 8.224567V812.399871c-0.001505 4.362858 3.933947 8.227577 8.379578 8.227577zM242.06896031 266.94476899999995H1217.01050731c21.192746 0 38.454555 16.820858 38.454555 37.754752 0 20.930884-17.138403 37.747227-38.454555 37.747227H242.06896031c-21.192746 0-38.45004-16.816343-38.45004-37.747227 0-20.933894 17.258799-37.754751 38.45004-37.754752z m974.812121-121.967396H242.06896031c-21.192746 0-38.45004-16.820858-38.45004-37.753247 0-20.804468 17.133888-37.747227 38.45004-37.747226H1217.01050731c21.192746 0 38.454555 16.814838 38.454555 37.747226-0.123406 20.804468-17.391235 37.753247-38.583981 37.753247z m0-197.47389H242.06896031c-21.192746 0-38.45004-16.823868-38.45004-37.756256 0-20.924864 17.133888-37.747227 38.45004-37.747227H1217.01050731c21.192746 0 38.454555 16.822363 38.454555 37.747227 0 20.932389-17.391235 37.756256-38.583981 37.756256z"  horiz-adv-x="1431" />

    
    <glyph glyph-name="dianpudaohang" unicode="&#59084;" d="M251.655875 404.979c-43.146 0-83.7118125 16.804125-114.2218125 47.3090625-30.51 30.513375-47.3056875 71.0724375-47.3056875 114.220125s16.8024375 83.7118125 47.3056875 114.220125C167.94575 711.24 208.5081875 728.0424375 251.655875 728.0424375c43.1409375 0 83.7118125-16.804125 114.2235-47.3090625 30.51-30.513375 47.307375-71.074125 47.307375-114.2218125s-16.8024375-83.710125-47.307375-114.220125C335.3643125 421.783125 294.7985 404.979 251.655875 404.979z m0 234.0376875c-19.3674375 0-37.57725-7.53975-51.26625-21.238875-13.69575-13.6873125-21.2355-31.9005-21.2355-51.2679375s7.5380625-37.5755625 21.2355-51.269625c13.6873125-13.692375 31.9021875-21.2338125 51.26625-21.2338125s37.5755625 7.5380625 51.2713125 21.2355c13.692375 13.692375 21.2338125 31.9005 21.2338125 51.2679375 0 19.3640625-7.5380625 37.57725-21.2355 51.2679375-13.6974375 13.7008125-31.903875 21.238875-51.269625 21.238875zM672.218 404.979c-43.1476875 0-83.716875 16.804125-114.2235 47.3090625-30.51 30.513375-47.314125 71.0791875-47.314125 114.220125 0 43.146 16.8058125 83.710125 47.314125 114.220125 30.5083125 30.51 71.074125 47.31075 114.2235 47.31075 43.142625 0 83.710125-16.804125 114.21675-47.31075 30.5150625-30.5116875 47.3090625-71.0724375 47.3090625-114.220125s-16.7990625-83.710125-47.300625-114.220125c-30.5184375-30.5049375-71.0825625-47.3090625-114.2251875-47.3090625z m0 234.0376875c-19.3674375 0-37.57725-7.53975-51.2679375-21.238875-13.6974375-13.6906875-21.2439375-31.9005-21.2439375-51.2679375s7.543125-37.5755625 21.2439375-51.269625c13.6873125-13.692375 31.9021875-21.2338125 51.2679375-21.2338125s37.573875 7.5380625 51.2679375 21.2355c13.689 13.692375 21.2338125 31.9005 21.2338125 51.2679375s-7.53975 37.57725-21.2338125 51.2679375c-13.6940625 13.7008125-31.9005 21.238875-51.2679375 21.238875zM1097.3178125 404.979c-43.1476875 0-83.7151875 16.804125-114.220125 47.3090625-30.513375 30.513375-47.3090625 71.0791875-47.3090625 114.220125 0 43.1476875 16.80075 83.7135 47.3090625 114.2235 30.5083125 30.5083125 71.07075 47.307375 114.220125 47.307375 43.1443125 0 83.7118125-16.804125 114.2184375-47.3090625 30.513375-30.51 47.3090625-71.0724375 47.3090625-114.2235 0-43.13925-16.80075-83.710125-47.3090625-114.21675-30.5049375-30.506625-71.0724375-47.31075-114.2184375-47.31075z m0 234.0376875c-19.369125 0-37.5789375-7.53975-51.2679375-21.238875-13.699125-13.6873125-21.238875-31.9005-21.238875-51.2679375s7.5380625-37.5755625 21.238875-51.269625c13.689-13.692375 31.8988125-21.2371875 51.2679375-21.2371875 19.3674375 0 37.5755625 7.5380625 51.269625 21.2355 13.689 13.6940625 21.2355 31.9005 21.2355 51.2679375s-7.53975 37.5789375-21.2355 51.2679375c-13.6940625 13.7041875-31.9021875 21.24225-51.269625 21.24225zM251.655875 39.957562499999995c-43.146 0-83.710125 16.8058125-114.2218125 47.3090625-30.51 30.513375-47.3090625 71.0758125-47.3090625 114.220125s16.8024375 83.7151875 47.3090625 114.21675c30.513375 30.51675 71.074125 47.3124375 114.2218125 47.3124375 43.1409375 0 83.7118125-16.8024375 114.2235-47.3124375 30.51-30.51 47.307375-71.0724375 47.307375-114.21675s-16.8024375-83.7084375-47.307375-114.220125C335.362625 56.75999999999999 294.7968125 39.957562499999995 251.655875 39.957562499999995z m0 234.0410625c-19.3674375 0-37.57725-7.5414375-51.26625-21.24225-13.6974375-13.6906875-21.2355-31.9005-21.2355-51.2679375s7.5380625-37.57725 21.2355-51.2679375c13.689-13.6940625 31.9021875-21.238875 51.26625-21.238875 19.3674375 0 37.573875 7.5380625 51.2713125 21.238875 13.692375 13.6906875 21.2338125 31.9005 21.2338125 51.2679375s-7.536375 37.57725-21.2338125 51.2679375c-13.699125 13.699125-31.9055625 21.24225-51.2713125 21.24225zM672.218 39.957562499999995c-43.146 0-83.7151875 16.8058125-114.2218125 47.3090625-30.5116875 30.513375-47.314125 71.0758125-47.314125 114.220125s16.8058125 83.7118125 47.314125 114.21675c30.5083125 30.513375 71.074125 47.3124375 114.2218125 47.3124375 43.13925 0 83.710125-16.8024375 114.21675-47.3124375 30.5150625-30.51 47.3090625-71.0724375 47.3090625-114.21675s-16.7990625-83.7084375-47.300625-114.220125c-30.5184375-30.506625-71.0825625-47.3090625-114.2251875-47.3090625z m0 234.0410625c-19.3674375 0-37.57725-7.5414375-51.2679375-21.24225-13.6974375-13.6906875-21.2439375-31.9005-21.2439375-51.2679375s7.543125-37.57725 21.2439375-51.2679375c13.6873125-13.6940625 31.9021875-21.238875 51.2679375-21.238875 19.3640625 0 37.573875 7.5380625 51.2713125 21.238875 13.6873125 13.6906875 21.2304375 31.9005 21.2304375 51.2679375 0 19.3708125-7.53975 37.57725-21.2338125 51.2679375-13.6940625 13.699125-31.903875 21.24225-51.2679375 21.24225zM1097.3178125 39.957562499999995c-43.1443125 0-83.70675 16.8058125-114.220125 47.3056875-30.513375 30.51675-47.3090625 71.0791875-47.3090625 114.2235 0 43.146 16.804125 83.7151875 47.3090625 114.220125 30.513375 30.513375 71.07075 47.3090625 114.220125 47.3090625 43.1443125 0 83.7118125-16.8058125 114.2184375-47.3124375 30.513375-30.506625 47.3090625-71.0656875 47.3090625-114.21675 0-43.146-16.80075-83.7118125-47.3090625-114.220125-30.5049375-30.50325-71.0724375-47.3090625-114.2184375-47.3090625z m0 234.0410625c-19.369125 0-37.5789375-7.5414375-51.2679375-21.24225-13.699125-13.6906875-21.238875-31.9005-21.238875-51.2679375s7.5380625-37.57725 21.238875-51.2679375c13.689-13.6940625 31.8988125-21.238875 51.2679375-21.238875 19.3674375 0 37.5755625 7.5380625 51.269625 21.238875 13.689 13.6906875 21.2355 31.9005 21.2355 51.2679375 0 19.3708125-7.53975 37.57725-21.2355 51.2679375-13.6974375 13.7008125-31.9021875 21.24225-51.269625 21.24225z"  horiz-adv-x="1344" />

    
    <glyph glyph-name="sousuo" unicode="&#59085;" d="M542.90548831 896H347.75173431c-80.367336 0-145.699824-65.330983-145.699824-145.699824v-195.153754c0-80.367336 65.330983-145.699824 145.699824-145.699823h195.153754c80.367336 0 145.699824 65.332487 145.699824 145.699823V750.1768529999999C688.60531231 830.548702 623.27132031 896 542.90548831 896z m68.698296-340.853578c0-37.897685-30.799107-68.698296-68.698296-68.698296H347.75173431c-37.897685 0-68.6998 30.799107-68.6998 68.698296V750.1768529999999c0 37.897685 30.800611 68.701304 68.6998 68.701305h195.153754c37.897685 0 68.698296-30.802115 68.698296-68.701305v-195.030431z m-68.698296-196.590013H347.75173431c-80.367336 0-145.699824-65.333991-145.699824-145.701327V17.70132799999999c0-80.36884 65.330983-145.699824 145.699824-145.699824h195.153754c80.367336 0 145.699824 65.327976 145.699824 145.699824V212.731759c0 80.371848-65.333991 145.82465-145.699824 145.82465zM611.60378431 17.70132799999999c0-37.896181-30.799107-68.6998-68.698296-68.699801H347.75173431c-37.897685 0-68.6998 30.800611-68.6998 68.699801V212.731759c0 37.896181 30.800611 68.6998 68.6998 68.6998h195.153754c37.897685 0 68.698296-30.800611 68.698296-68.6998V17.70132799999999z m621.548208-44.152556l-50.652567 42.226014c16.60195 32.728657 25.261614 68.6998 25.261615 105.995911 0 129.579133-105.392833 235.096792-235.093785 235.096792-129.69644 0-235.095288-105.394337-235.095288-235.096792 0-129.694936 105.398849-235.093785 235.095288-235.093785 22.383081 0 44.519516 3.131195 65.815251 9.386065 20.456539 5.892422 32.121067 27.311479 26.228645 47.763506-5.898437 20.456539-27.309975 32.121067-47.768018 26.228646-14.317472-4.211021-29.236517-6.256374-44.275878-6.256374-87.10497 0-158.089249 70.866972-158.089249 158.095265 0 87.10497 70.860956 158.089249 158.089249 158.089249 87.110986 0 158.093761-70.860956 158.093761-158.089249 0-32.845964-9.98764-64.251157-28.755258-90.956551-12.512748-16.244014-10.10645-39.70692 5.775115-53.058865l76.04352-63.524756c7.221901-6.015744 16.004888-8.906309 24.661544-8.90631 11.065962 0 21.901821 4.693785 29.597462 13.836212 13.597086 16.364329 11.308095 40.547621-4.931407 54.265022zM882.67021631 409.323276h195.155258c80.370344 0 145.699824 65.332487 145.699824 145.705839V750.1768529999999c0 80.371848-65.327976 145.70584-145.699824 145.70584H882.67021631c-80.367336 0-145.699824-65.332487-145.699824-145.70584v-195.147738c0-80.248525 65.333991-145.70584 145.699824-145.705839zM813.97041631 750.1768529999999c0 37.897685 30.800611 68.701304 68.6998 68.701305h195.155258c37.896181 0 68.6998-30.802115 68.6998-68.701305v-195.147738c0-37.903701-30.799107-68.698296-68.6998-68.698296H882.67021631c-37.896181 0-68.6998 30.794595-68.6998 68.698296V750.1768529999999z"  horiz-adv-x="1422" />

    
    <glyph glyph-name="miaosha" unicode="&#59086;" d="M654.37338631 853.52599c251.451063 0 455.268368-203.873087 455.268367-455.297012 0-251.449555-203.81429-455.268368-455.268367-455.268368S199.10200331 146.77942299999995 199.10200331 398.228978C199.10200331 649.681548 402.92081531 853.498853 654.37338631 853.498853v0.027137z m0-86.143303C450.49728331 767.382687 285.24530631 602.103573 285.24530631 398.228978c0-203.873087 165.250469-369.123557 369.12808-369.123557 203.873087 0 369.123557 165.250469 369.123556 369.123557 0 203.876103-165.250469 369.126572-369.123556 369.126572v0.027137zM354.07341031 894.99201A28.712927 28.712927 0 0 0 389.20585131 859.34848a28.711419 28.711419 0 0 0-20.974232-20.004821c-63.577008-16.196533-105.355108-56.450413-127.552032-123.588458-5.092794-14.892428-21.222991-22.907021-36.169694-17.97102-14.943688 4.937508-23.131658 20.977247-18.358483 35.976717C214.40903131 819.213704 271.14740231 873.886614 354.07341031 894.99201z m612.998749 0a28.712927 28.712927 0 1 1-14.156702-55.648351c63.604146-16.196533 105.383753-56.450413 127.552033-123.589965a28.732526 28.732526 0 0 1 21.43406-19.122855 28.714434 28.714434 0 0 1 27.279165 9.003602 28.706896 28.706896 0 0 1 5.842089 28.123441c-28.25159 85.455821-84.999008 140.128731-167.950645 161.234128zM506.23307731 384.048154l-1.151834-3.24594a28.714434 28.714434 0 0 1 2.65947-22.044653 28.684282 28.684282 0 0 1 17.591096-13.561186l108.507575-28.973747-31.87444-208.637217c-5.053596-33.024766 40.832812-46.576905 54.559838-16.140751l145.669294 323.036633 1.148818 3.072562c4.669149 14.619546-2.983612 30.327605-17.370981 35.661621l-91.141117 33.76803V692.410966c0 31.360336-43.125927 39.99909-55.214151 11.053987L506.23307731 384.048154z m131.170358 165.134381v-82.206865l0.200516-3.561037a28.699358 28.699358 0 0 1 18.521308-23.342727l81.059554-30.007986-46.804558-103.7148 4.102278 26.615805 0.321126 3.32886a28.715942 28.715942 0 0 1-21.278774 28.744587l-101.652354 27.220367 65.530904 156.923796zM398.69641931 44.55718200000001c10.719292 10.690647 27.903326 11.215304 39.266379 1.197063 11.352499-10.01221 12.980746-27.123878 3.720845-39.103554l-2.383572-2.697161-123.558305-123.555289c-10.720799-10.698185-27.909357-11.221334-39.264871-1.210632-11.361545 10.018241-12.989791 27.131417-3.720845 39.108077l2.383572 2.695653 123.556797 123.565843z m450.730384 0c10.22931 10.224787 26.47861 11.251487 37.90649 2.383572l2.697161-2.383572 123.56132-123.562828c10.689139-10.720799 11.215304-27.904834 1.198571-39.260348-10.01221-11.354006-27.123878-12.982253-39.105062-3.722353l-2.69716 2.386588-123.55529 123.555289c-11.210781 11.212289-11.210781 29.388348 0 40.597621l-0.00603 0.006031z"  horiz-adv-x="1292" />

    
    <glyph glyph-name="pintuan" unicode="&#59087;" d="M1006.72979132 778.645837c-75.6761 75.681353-176.288647 117.355914-283.306468 117.355914-107.019573 0-207.644376-41.674561-283.322227-117.355914-75.674349-75.674349-117.347159-176.288647-117.34716-283.315224 0-82.722253 25.013492-162.133304 72.329878-229.656599 39.554061-56.449769 92.177826-101.22891 153.50597-130.938669l-63.175483-214.937425c-5.806422-19.744637 5.499991-40.448839 25.239375-46.251759 19.74989-5.806422 40.448839 5.499991 46.255261 25.241126L639.07436232 178.332539l-32.13669 12.292244c-61.025216 23.339505-113.169197 64.080766-150.828642 117.812934-38.489434 54.928122-58.839928 119.551708-58.839928 186.891145 0 87.115592 33.926245 169.027117 95.532803 230.617916C554.40496132 787.549834 636.30422932 821.481332 723.42157232 821.481332c87.106837 0 169.018362-33.931498 230.616165-95.534554 61.606558-61.597803 95.525799-143.500573 95.525799-230.617916 0-67.339437-20.341739-131.963023-58.832924-186.891145-37.657694-53.735669-89.812181-94.473428-150.828642-117.812934l-32.136689-12.292244 82.160171-279.545252c4.76806-16.242573 19.623815-26.766275 35.726306-26.766275 3.484554 0 7.019887 0.49204 10.525453 1.525149 19.741135 5.80292 31.044046 26.507122 25.242877 46.251759l-63.17023 214.937425c61.328144 29.713262 113.953659 74.4889 153.509472 130.945673 47.312884 67.518042 72.319372 146.934347 72.319372 229.656599 0.001751 107.019573-41.662304 207.63387-117.348911 283.30822zM224.73817032 249.83592999999996c-23.355265 33.332645-35.708795 72.564516-35.708795 113.438855 0 65.667201 32.486896 126.949819 86.89146 163.905349 17.020031 11.567317 21.443138 34.742226 9.874069 51.760505-11.560313 17.025284-34.735221 21.443138-51.75175 9.884576-74.847862-50.848218-119.534198-135.174416-119.534198-225.55043 0-56.260658 17.021782-110.278243 49.198746-156.211314 24.447909-34.877055 56.211629-63.199997 93.095366-83.247562l-69.78738-202.382525c-6.706452-19.446961 3.621134-40.658963 23.082104-47.363664a36.981795 36.981795 0 0 1 12.138154-2.050459c15.463363 0 29.909377 9.697215 35.234265 25.125558l92.50702 268.266855-33.656586 12.877089c-37.044833 14.1676-68.712246 38.914935-91.582475 71.547167z m1058.386766-42.763703c32.189221 45.924316 49.207501 99.941901 49.207501 156.202558 0 89.840198-44.259084 173.861716-118.397778 224.779976-16.965749 11.649616-40.163421 7.340326-51.814788-9.623672-11.646114-16.960496-7.336824-40.158167 9.62017-51.806032 53.891511-37.015065 86.063222-98.071799 86.063222-163.350272 0-40.881344-12.343024-80.106211-35.698289-113.438855-22.875482-32.633983-54.544646-57.381318-91.582475-71.547167l-33.656585-12.877089 92.507019-268.266855c5.324888-15.428343 19.770902-25.125558 35.22551-25.125558a37.296981 37.296981 0 0 1 12.14866 2.050459c19.448712 6.704701 29.781552 27.913201 23.080353 47.363664l-69.794384 202.39128c36.892493 20.040561 68.656213 48.363503 93.091864 83.247563z"  horiz-adv-x="1424" />

    
    <glyph glyph-name="zhanweifu" unicode="&#59088;" d="M1117.96781598 177.07736599999998V595.282832c22.450672 7.467553 43.022827 20.110028 60.235559 37.328762 29.147013 29.141011 45.190923 67.887662 45.190923 109.099492S1207.35188798 821.669566 1178.20487498 850.810577c-29.141011 29.141011-67.886162 45.189423-109.099492 45.189423-41.211829 0-79.958481-16.048412-109.09649-45.189423-15.179673-15.178173-26.791365-32.967063-34.453972-52.34789h-446.447729C471.44908598 817.843515 459.83139298 835.627904 444.65321998 850.809077 415.51370998 879.950088 376.76855798 896 335.55822998 896c-41.210329 0-79.958481-16.048412-109.099492-45.189423C197.31772698 821.666566 181.26931498 782.921414 181.26931498 741.7095850000001c0-41.21483 16.043911-79.958481 45.186422-109.099492 21.598437-21.595437 48.466324-35.988893 77.69886-42.002546v-413.224096c-29.231036-6.013653-56.104923-20.40861-77.69736-41.996545-29.141011-29.141011-45.186422-67.887662-45.186421-109.099492 0-41.217831 16.045411-79.958481 45.184921-109.099492 29.141011-29.147013 67.887662-45.190923 109.099492-45.190923 41.21633 0 79.95698 16.043911 109.102492 45.187922 24.510738 24.513739 39.751928 55.813843 43.981591 89.673652H916.63646898c4.957363-32.173345 19.914975-61.854504 43.367922-85.305951 29.141011-29.141011 67.887662-45.187922 109.099492-45.187922 41.21483 0 79.958481 16.043911 109.099492 45.187922 29.148513 29.144012 45.190923 67.887662 45.190923 109.102493s-16.04241 79.958481-45.190923 109.096491c-17.212732 17.212732-37.784887 29.858208-60.235559 37.32576zM379.17822098 92.49461399999996a79.88196 79.88196 0 0 0 12.432418-10.159292c0.150041-0.150041 0.286579-0.307585 0.435119-0.457626m52.611963 53.506209c-18.548099 18.543598-40.991269 31.781737-65.484001 38.96121v419.305268c24.489732 7.177973 46.931402 20.411611 65.484001 38.961211 24.788314 24.788314 40.100024 56.532541 44.115128 90.830469h427.116415c4.022606-34.296428 19.331314-66.040655 44.118128-90.830469 22.875288-22.878289 51.672705-37.682859 82.935299-42.989818v-406.881853c-31.262594-5.30996-60.060011-20.111529-82.935299-42.989818-16.605065-16.603564-28.959461-36.344491-36.517038-57.867908H479.57381998c-7.647602 19.82495-19.434843 38.017451-34.916099 53.501708zM1148.48320498 739.064358c0-43.295902-35.10365-78.396551-78.396552-78.396551-43.297403 0-78.396551 35.100649-78.396551 78.396551 0 43.292901 35.099149 78.396551 78.396551 78.396551 43.294402 0 78.396551-35.10215 78.396552-78.396551z m-728.204185 0.201055c0-45.473001-36.862133-82.335134-82.335135-82.335134-45.477502 0-82.335134 36.863634-82.335134 82.335134s36.857632 82.335134 82.335134 82.335134c45.473001 0 82.335134-36.863634 82.335135-82.335134z m-6.288229-713.003506c0-43.637996-35.376725-79.011721-79.014721-79.011721s-79.014721 35.373724-79.014722 79.011721c0 43.640997 35.376725 79.014721 79.014722 79.014721s79.014721-35.373724 79.014721-79.014721z m736.855563 5.42099c0-44.314682-35.927377-80.240558-80.245059-80.240558-44.314682 0-80.240558 35.924376-80.240559 80.240558 0 44.317683 35.922875 80.24506 80.240559 80.24506 44.313182 0.004501 80.24506-35.924376 80.245059-80.24506z"  horiz-adv-x="1422" />

    
    <glyph glyph-name="shangpinfenzu" unicode="&#59089;" d="M535.81003598 303.89050699999996H266.23709598a85.658129 85.658129 0 0 1-60.112024-24.547247c-15.428151-15.145342-25.00606-36.037128-25.00606-59.013881v-264.638821c0-23.036925 9.577909-43.96331 25.00606-59.125199a85.596453 85.596453 0 0 1 60.112024-24.565299h269.57294a85.649103 85.649103 0 0 1 60.115032 24.548752c15.43116 15.145342 25.007564 36.037128 25.007565 59.012376V220.32637c0 22.976753-9.576405 43.868539-25.007565 59.013881a85.647599 85.647599 0 0 1-60.115032 24.550256z m8.369953-215.884299v-132.318658c0-2.178233-0.983815-4.233114-2.521215-5.743436-1.5374-1.510322-3.631392-2.476086-5.850242-2.476086H266.23559198c-2.220354 0-4.312842 0.967268-5.853251 2.476086-1.5374 1.510322-2.521215 3.565203-2.521215 5.743436V220.32637c0 2.179738 0.982311 4.236123 2.521215 5.746445s3.632896 2.476086 5.853251 2.476086h269.57294c2.220354 0 4.311338-0.967268 5.850242-2.476086 1.535895-1.508818 2.521215-3.566707 2.521215-5.746445v-132.320162zM535.81304498 895.992433h-269.571436a85.661138 85.661138 0 0 1-60.115032-24.548751c-15.428151-15.143837-25.00606-36.037128-25.00606-59.013881v-264.638821c0-23.038429 9.577909-43.96331 25.007564-59.126703a85.606983 85.606983 0 0 1 60.115032-24.565299h269.571436a85.652112 85.652112 0 0 1 60.112024 24.548751c15.428151 15.146846 25.00606 36.037128 25.00606 59.012377V812.429801c0 22.975249-9.577909 43.868539-25.00606 59.012377a85.65512 85.65512 0 0 1-60.113528 24.550255z m8.374465-215.882794v-132.318659c0-2.178233-0.983815-4.234618-2.522719-5.74494s-3.631392-2.476086-5.85325-2.476086h-269.571437c-2.223363 0-4.314346 0.967268-5.854754 2.476086-1.5374 1.510322-2.522719 3.566707-2.522719 5.74494V812.429801c0 2.178233 0.983815 4.234618 2.522719 5.74494 1.538904 1.510322 3.632896 2.476086 5.854754 2.476086h269.571437c2.221858 0 4.312842-0.968772 5.85325-2.476086 1.5374-1.510322 2.522719-3.566707 2.522719-5.74494v-132.320162zM693.29571498 638.7773569999999c1.746498-0.989833 3.590776-1.529878 5.501243-1.529878H1193.56133198c1.559964 0 3.076304 0.364042 4.533975 1.033458a37.511347 37.511347 0 0 1 18.111831 10.038226 37.461705 37.461705 0 0 1 11.003991 26.569033 37.464713 37.464713 0 0 1-11.003991 26.569033 37.554972 37.554972 0 0 1-17.3672 9.86824c-1.6773 0.902583-3.444858 1.394491-5.278606 1.394491H698.79846298c-2.130096 0-4.178959-0.667911-6.101461-1.887903a37.52639 37.52639 0 0 1-15.587607-9.371819 37.452679 37.452679 0 0 1-11.005495-26.569033 37.457192 37.457192 0 0 1 11.005495-26.569033 37.502321 37.502321 0 0 1 16.18632-9.544815zM1193.11004098 150.18815500000005a10.259359 10.259359 0 0 1-2.513693 0.32493H698.68563998a10.40979 10.40979 0 0 1-2.638551-0.353512 37.457192 37.457192 0 0 1-22.699961-10.811439 37.454183 37.454183 0 0 1-11.005494-26.569033 37.454183 37.454183 0 0 1 11.005494-26.567529 37.464713 37.464713 0 0 1 22.659345-10.805422 10.435363 10.435363 0 0 1 2.677663-0.362537H1190.65952798c0.863471 0 1.714908 0.121849 2.548293 0.33546a37.469226 37.469226 0 0 1 22.991796 10.832499 37.458696 37.458696 0 0 1 11.00399 26.567529 37.467722 37.467722 0 0 1-11.00399 26.569033 37.431619 37.431619 0 0 1-23.089576 10.840021z"  horiz-adv-x="1424" />

    
    <glyph glyph-name="75" unicode="&#59078;" d="M517.870933 747.906844c-19.6608 0-38.923378-1.649778-57.730844-4.687644 8.248889-3.106133 18.545778-4.778667 32.585956-4.107378 48.310044 2.298311 78.244978-6.906311 43.702044-20.730311s-28.114489-28.501333-11.992178-29.650489c16.122311-1.149156 53.703111 16.054044 66.173156 0.9216 12.868267-15.621689-14.4384-41.244444 1.8432-68.926578 24.223289-41.198933-58.629689-50.631111-79.5648-81.521778-20.195556-29.7984-31.584711-61.713067-8.556089-104.493511 23.028622-42.780444 28.444444-16.941511 68.937956-21.629156 79.826489-9.238756 55.933156-71.736889 154.282667-91.306667 37.626311-7.486578 11.764622-89.224533-54.260622-128.6144-63.635911-37.956267-43.542756-81.499022-133.973333-110.535111-21.731556-6.974578-38.263467-2.9696-21.447111 21.208178 32.620089 46.887822 29.787022 99.145956 0 122.538667-29.787022 23.392711-63.1808 28.489956-55.125333 64.512 8.055467 36.022044 39.230578 48.628622 41.449244 81.009778 2.139022 31.232-47.4112 137.534578-109.340444 116.485689-35.373511-12.026311-103.788089 32.9728-100.169956 91.898311 4.1984 68.460089 56.638578 78.9504 44.862578 119.671467-0.034133 0.113778 0.011378 0.261689 0 0.386844-107.576889-61.8496-180.076089-177.846044-180.076089-310.840889 0-197.9392 160.4608-358.4 358.4-358.4s358.4 160.4608 358.4 358.4S715.810133 747.906844 517.870933 747.906844z"  horiz-adv-x="1024" />

    
    <glyph glyph-name="saoyisao" unicode="&#59077;" d="M302.889449 662.504965H859.89938v-557.003232H302.889449zM165.985044 538.591392v78.504272C165.985044 717.835725 247.565387 799.414393 348.303773 799.414393h466.179608c100.738386 0 182.325427-81.578668 182.325426-182.318729v-78.504272c0-26.654814 21.565985-48.358109 48.35811-48.358109 26.654814 0 48.358109 21.565985 48.358109 48.358109v78.504272C1093.525026 771.150377 968.675403 896 814.62069 896H348.303773c-154.054713 0-278.902661-124.849623-278.902661-278.904336v-78.504272c0-26.654814 21.564311-48.358109 48.356435-48.358109 26.654814 0 48.227498 21.703295 48.227497 48.358109z m830.823763-309.176086v-78.505947c0-100.738386-81.587041-182.318729-182.325426-182.318729H348.303773C247.565387-31.40937 165.985044 50.170973 165.985044 150.909359v78.505947c0 26.654814-21.572683 48.358109-48.364807 48.358109-26.654814 0-48.356435-21.565985-48.356434-48.358109v-78.505947c0-154.054713 124.847948-278.904336 278.902661-278.904335h466.316917c154.054713 0 278.911034 124.849623 278.911033 278.904335v78.505947c0 26.654814-21.572683 48.358109-48.364807 48.358109-26.654814 0-48.2208-21.703295-48.2208-48.358109z m87.742532 106.225748H78.23749c-26.524203 0-48.358109 21.703295-48.35811 48.356434 0 26.524203 21.703295 48.364807 48.35811 48.364807H1084.551339c26.524203 0 48.358109-21.703295 48.358109-48.364807-0.130612-26.522528-21.833906-48.356435-48.358109-48.356434z m0 0"  horiz-adv-x="1349" />

    
    <glyph glyph-name="dengdaifukuan" unicode="&#58902;" d="M859.124 62.927c-5.531-5.548-12.32-8.323-20.329-8.323h-86.917c-8.009 0-14.797 2.774-20.329 8.323-5.548 5.549-8.324 12.329-8.324 20.347l0 115.56c0 8.009 2.775 14.867 8.324 20.581 5.549 5.69 12.32 8.533 20.329 8.533s14.885-2.844 20.573-8.533c5.706-5.714 8.55-12.563 8.55-20.581v-86.446h57.793c8.009 0 14.798-2.844 20.346-8.55 5.549-5.697 8.306-12.563 8.306-20.573s-2.757-14.789-8.306-20.338v0l-0.016-0zM908.245 157.793c-8.412 19.273-19.857 36.137-34.324 50.604-14.465 14.456-31.321 25.903-50.604 34.341-19.282 8.436-39.768 12.65-61.458 12.65-22.179 0-42.891-4.214-62.173-12.65-19.264-8.437-36.138-19.885-50.604-34.341-14.448-14.457-25.896-31.331-34.341-50.604-8.428-19.291-12.634-39.768-12.634-61.45 0-22.17 4.205-42.891 12.634-62.173 8.445-19.291 19.892-36.146 34.341-50.613 14.465-14.457 31.34-25.781 50.604-33.983 19.282-8.183 40.012-12.285 62.173-12.285 21.689 0 42.176 4.101 61.458 12.285 19.282 8.202 36.138 19.526 50.604 33.983 14.466 14.466 25.912 31.321 34.324 50.613 8.445 19.273 12.669 40.003 12.669 62.173-0.001 21.682-4.224 42.159-12.669 61.45v0 0zM226.558 39.459c-32.142 0-58.422 26.296-58.422 58.43v609.357c0 32.125 26.28 58.422 58.422 58.422h497.034c32.126 0 58.422-26.288 58.422-58.422v-404.761c23.086-2.783 44.985-9.432 65.035-19.291l0 430.673c0 64.268-52.576 116.843-116.843 116.843l-510.279 0c-64.249 0-116.842-52.575-116.842-116.843v-622.61c0-64.257 52.594-116.842 116.842-116.842h378.307c-15.216 19.177-27.047 41.164-34.585 65.043l-337.091 0.001zM610.938 685.511h63.168l-148.269-253.785h117.557v-51.477l-143.401-0v-81.89h143.401v-47.594l-142.493 0v-121.71h-59.416l0 121.71h-147.5v47.594h147.501v81.89l-147.501-0v51.477l126.649 0-149.579 253.785h65.628c69.030-126.047 121.99-205.974 136.874-239.766l137.381 239.766zM610.938 685.511z"  horiz-adv-x="1024" />

    
    <glyph glyph-name="daishouhuofuben" unicode="&#59075;" d="M1024 672.672 1024 799.328C1024 852.64 980.928 896 928 896L96 896C43.072 896 0 852.64 0 799.328l0-126.624C0 619.36 43.072 576 96 576l0.512 0 0-513.984c0-36.224 30.048-65.696 67.008-65.696l335.808 0C551.328-78.688 637.984-128 736-128c158.816 0 288 129.184 288 288 0 84.768-37.024 160.864-95.488 213.6L928.512 576.064C981.184 576.32 1024 619.552 1024 672.672zM64 672.672 64 799.328C64 817.376 78.336 832 96 832l832 0c17.664 0 32-14.624 32-32.672l0-126.624C960 654.624 945.664 640 928 640L96 640C78.336 640 64 654.624 64 672.672zM960 160c0-123.712-100.288-224-224-224s-224 100.288-224 224 100.288 224 224 224c51.744 0 99.232-17.696 137.152-47.168 1.76-1.92 3.936-3.264 6.144-4.704C928.576 291.04 960 229.216 960 160zM736 448c-158.816 0-288-129.184-288-288 0-35.072 6.624-68.544 18.144-99.648L163.488 60.352c-1.952 0-3.008 1.184-3.008 1.696L160.48 572.288l704-0.864 0-154.08C825.76 436.8 782.208 448 736 448zM768.256 320c0 17.696-14.304 32-32 32s-32-14.304-32-32l0-160c0-17.696 14.304-32 32-32l160 0c17.696 0 32 14.304 32 32s-14.304 32-32 32l-128 0L768.256 320z"  horiz-adv-x="1024" />

    
    <glyph glyph-name="daifahuo" unicode="&#59076;" d="M957.152011 726.810646c0 35.162848-28.760021 63.814398-64.031339 63.814398l-500.744655 0c-35.272341 0-64.031339-28.65155-64.031339-63.814398l0-105.705484c0-1.735527-0.759293-3.146667-2.279926-3.90596l-176.736237-92.89983c-49.867758-26.155706-82.48155-77.488839-82.48155-133.813658l0-320.0472 133.867894 0c0-0.10847 0-0.10847 0-0.162706l1.194198 0c11.883655-53.123918 59.147098-92.89983 115.852588-92.89983s103.969956 39.775912 115.853611 92.89983l1.465374 0c0.054235 0.054235 0.054235 0.054235 0.054235 0.162706l150.311401 0c0-0.10847 0-0.10847 0-0.162706l5.426593 0c11.93789-53.123918 59.147098-92.89983 115.906823-92.89983 56.760748 0 104.078427 39.830147 115.907846 93.062536l134.465504 0L957.153034 726.810646zM317.761646 32.941506c-34.944883 0-63.380516 28.434609-63.380516 63.380516s28.434609 63.380516 63.380516 63.380516c34.945907 0 63.381539-28.434609 63.381539-63.380516S352.708576 32.941506 317.761646 32.941506zM706.77866 32.941506c-34.944883 0-63.379493 28.434609-63.379493 63.380516s28.433586 63.380516 63.379493 63.380516c34.945907 0 63.380516-28.434609 63.380516-63.380516S741.724567 32.941506 706.77866 32.941506zM901.585461 126.004041l-80.093153 0c-13.240559 51.225685-59.365062 89.264023-114.714671 89.264023-55.402821 0-101.58156-38.039361-114.821095-89.264023L432.530552 126.004041c-13.239536 51.225685-59.365062 89.264023-114.767883 89.264023-55.402821 0-101.527324-38.039361-114.76686-89.264023l-80.58127 0L122.414539 390.485715c0 35.108612 20.239973 67.503417 52.798507 84.650959l175.705767 92.356454c20.402679 10.148128 32.992415 30.713512 32.992415 53.613058L383.911228 726.810646c0 4.450359 3.90596 8.248871 8.464789 8.248871l500.744655 0c4.557806 0 8.464789-3.798513 8.464789-8.248871L901.585461 126.004041zM372.460432 513.500423c-15.356756 0-27.782763-12.426007-27.782763-27.78174l0-138.91484L205.761805 346.803843c-15.356756 0-27.782763-12.42703-27.782763-27.782763s12.42703-27.782763 27.782763-27.782763l166.697603 0c15.356756 0 27.782763 12.42703 27.782763 27.782763L400.242172 485.717659C400.243195 501.074416 387.816165 513.500423 372.460432 513.500423z"  horiz-adv-x="1024" />

    
    <glyph glyph-name="ziyuan" unicode="&#58936;" d="M456.524-128c-17.024 0.128-30.775 13.958-30.775 31 0 11.060 5.792 20.768 14.509 26.255l158.531 97.326c5.089 3.805 11.505 6.092 18.456 6.092 17.121 0 31.001-13.88 31.001-31.001 0-12.085-6.915-22.556-17.005-27.669l-158.58-97.331c-4.598-2.925-10.198-4.664-16.204-4.672zM456.524 390.95c-0.097-0.001-0.211-0.002-0.325-0.002-5.152 0-10.011 1.257-14.286 3.48l-425.35 225.845c-9.763 5.349-16.272 15.554-16.272 27.279 0 11.894 6.698 22.224 16.529 27.423l424.841 217.514c4.125 2.212 9.024 3.511 14.227 3.511s10.102-1.299 14.391-3.591l424.509-225.846c9.88-5.315 16.483-15.582 16.483-27.391s-6.603-22.076-16.318-27.31l-424.838-217.514c-4.058-2.12-8.859-3.374-13.951-3.401zM98.1 645.754l358.849-190.253 357.999 185.582-358.849 188.979zM456.524-128c-6.035 0.046-11.649 1.809-16.389 4.825l-424.422 261.021c-9.332 5.36-15.554 15.206-15.716 26.518l0.003 483.090c-0 0.051-0 0.111-0 0.171 0 17.121 13.88 31.001 31.001 31.001 5.281 0 10.254-1.32 14.606-3.649l424.507-225.845c9.874-5.275 16.494-15.485 16.563-27.248l-0.001-518.881c0-17.121-13.88-31.001-31.001-31.001 0 0 0 0 0 0zM62.003 181.586l362.671-223.378v445.057l-362.671 192.801zM316.382 341.688c-0.869-0.088-1.878-0.138-2.899-0.138-4.16 0-8.127 0.831-11.742 2.336l-185.804 100.148c-10.662 5.056-17.904 15.731-17.904 28.099 0 17.121 13.88 31.001 31.001 31.001 5.821 0 11.267-1.604 15.921-4.395l185.866-98.871c9.665-5.376 16.096-15.528 16.096-27.183 0-16.957-13.615-30.735-30.51-30.997zM815.372 230.424c-0.127-0.002-0.276-0.004-0.426-0.004-3.875 0-7.529 0.943-10.746 2.613l-80.983 42.406c-7.72 4.076-12.891 12.051-12.891 21.234 0 13.218 10.715 23.933 23.933 23.933 4.035 0 7.837-0.999 11.172-2.762l80.982-42.404c6.124-4.271 10.081-11.282 10.081-19.217 0-12.113-9.221-22.072-21.026-23.242zM815.372 127.228c-12.9 0-23.357 10.457-23.357 23.357v103.195c0 12.9 10.457 23.357 23.357 23.357s23.357-10.457 23.357-23.357v-103.62c-0.239-12.716-10.603-22.932-23.353-22.932-0.001 0-0.003 0-0.004 0zM815.372 30.828c-123.134 0-222.953 99.82-222.953 222.953s99.82 222.953 222.953 222.953c123.134 0 222.953-99.82 222.953-222.953 0-0 0-0 0-0-0.241-123.037-99.917-222.712-222.931-222.953zM815.372 413.033c-89.125 0-161.376-72.25-161.376-161.376s72.25-161.376 161.376-161.376c89.125 0 161.376 72.25 161.376 161.376 0.009 0.631 0.014 1.377 0.014 2.123 0 89.125-72.25 161.376-161.376 161.376-0.005 0-0.010-0-0.015-0z"  horiz-adv-x="1038" />

    
    <glyph glyph-name="dizhi1" unicode="&#58945;" d="M511.999488-53.020308c-117.532857 0-228.322126 18.036795-311.960011 50.78771-89.400123 35.006282-138.635477 83.833337-138.635477 137.485281 0 27.15036 13.024641 67.624167 75.074859 106.260116 43.931558 27.352975 105.499799 49.376571 178.050162 63.686485 10.534937 2.079358 20.759813-4.776793 22.838148-15.312754 2.077312-10.534937-4.777817-20.759813-15.312754-22.837124-132.644019-26.163893-221.763756-79.129198-221.763756-131.796722 0-36.011168 41.525766-72.925916 113.927749-101.276614 79.229482-31.024597 184.984085-48.110741 297.782104-48.110741 112.798019 0 218.551598 17.08512 297.78108 48.110741 72.40403 28.350698 113.928772 65.264423 113.928772 101.276614 0 53.358255-90.715071 106.633622-225.734184 132.569318-10.546194 2.025123-17.452487 12.216229-15.426341 22.7614 2.025123 10.547217 12.220323 17.452487 22.7614 15.426341 73.634044-14.144138 136.194892-36.170804 180.917466-63.696718 63.11855-38.848797 76.367295-79.662341 76.367295-107.060341 0-53.651944-49.234331-102.478999-138.635477-137.485281C740.321614-34.984536 629.531322-53.020308 511.999488-53.020308zM512.012791 127.69045c-5.720282 0-11.384281 2.511193-15.223726 7.334036-92.082208 115.657136-145.973606 214.814484-174.967964 277.630135-30.347169 65.7464-40.566928 106.270349-41.764196 111.246687-5.770424 20.85191-8.696056 42.488697-8.696056 64.314795 0 64.276932 25.031093 124.706233 70.481238 170.157401 45.451168 45.451168 105.880469 70.481238 170.157401 70.481238 10.737552 0 19.442818-8.704243 19.442818-19.442818 0-10.737552-8.705266-19.442818-19.442818-19.442818-111.246687 0-201.753003-90.506317-201.753003-201.753003 0-18.428721 2.480494-36.682457 7.372921-54.251601l0.211824-0.830925c0.085958-0.367367 9.552563-40.024575 39.969317-105.638969 28.078499-60.57154 80.263022-156.279323 169.410388-268.251533 6.688329-8.400321 5.300726-20.6319-3.100618-27.320229C520.531815 129.074983 516.256442 127.69045 512.012791 127.69045zM515.917728 127.69045c-4.243651 0-8.518001 1.384533-12.096503 4.233418-8.400321 6.688329-9.788947 18.919908-3.100618 27.320229 171.202197 215.035518 209.017454 372.32689 209.378681 373.890502l0.211824 0.829901c4.892427 17.571191 7.372921 35.823903 7.372921 54.251601 0 111.246687-90.505293 201.753003-201.753003 201.753003-10.737552 0-19.442818 8.705266-19.442818 19.442818 0 10.738575 8.705266 19.442818 19.442818 19.442818 64.276932 0 124.706233-25.031093 170.157401-70.481238 45.450145-45.451168 70.481238-105.880469 70.481238-170.157401 0-21.824051-2.925632-43.459814-8.696056-64.313771-1.195222-4.972245-11.414981-45.497217-41.764196-111.24771-28.994358-62.815651-82.885755-161.972998-174.967964-277.630135C527.303033 130.202667 521.636986 127.69045 515.917728 127.69045zM511.999488 462.486562c-63.685461 0-115.496477 51.811016-115.496477 115.496477s51.811016 115.496477 115.496477 115.496477c63.684438 0 115.496477-51.811016 115.496477-115.496477S575.683926 462.486562 511.999488 462.486562zM511.999488 654.594905c-42.243103 0-76.610842-34.367739-76.610842-76.610842s34.367739-76.610842 76.610842-76.610842 76.610842 34.367739 76.610842 76.610842S554.242592 654.594905 511.999488 654.594905z"  horiz-adv-x="1024" />

    
    <glyph glyph-name="dizhi2" unicode="&#58901;" d="M511.426-59.66c-29.824 0-343.204 352.504-343.204 542.044 0 189.535 153.644 343.204 343.204 343.204S854.63 671.942 854.63 482.384c0-189.56-314.905-542.043-343.204-542.043z m0 840.962c-165.09 0-298.918-133.847-298.918-298.918 0-165.114 290.55-497.762 298.918-497.762 3.853 0 298.923 332.648 298.923 497.762 0 165.071-133.828 298.918-298.923 298.918z m0-420.701c-67.244 0-121.783 54.534-121.783 121.783 0 67.243 54.54 121.783 121.783 121.783 67.249 0 121.783-54.54 121.783-121.783 0-67.249-54.534-121.783-121.783-121.783z m0 199.28c-42.8 0-77.497-34.717-77.497-77.497 0-42.823 34.697-77.498 77.497-77.498 42.803 0 77.497 34.675 77.497 77.498 0 42.78-34.694 77.497-77.497 77.497z m0 0"  horiz-adv-x="1024" />

    
    <glyph glyph-name="icon-test2" unicode="&#58911;" d="M882.3 636.4l-0.2-0.1c-8.1 11.2-21.3 18.6-36.2 18.6-24.7 0-44.8-20.1-44.8-44.8 0-8.9 2.7-17.2 7.2-24.2 0.3-0.4 0.5-0.8 0.8-1.2 40.1-59.3 61.3-128.5 61.3-200.4 0-197.6-160.8-358.4-358.4-358.4S153.6 186.60000000000002 153.6 384.2c0 71.8 21.2 141.1 61.2 200.4 4.8 7.2 7.7 15.8 7.7 25.1 0 24.7-20.1 44.8-44.8 44.8-15.5 0-29.1-7.8-37.1-19.7C90.5 560.6 64 474 64 384.2c0-247 201-448 448-448s448 201 448 448c0 90.5-26.9 177.8-77.7 252.2ZM512 384m-52.3 0a52.3 52.3 0 1 1 104.6 0 52.3 52.3 0 1 1-104.6 0ZM512 479c24.6 0 44.8 20.2 44.8 44.8V787c0 24.6-20.2 44.8-44.8 44.8-24.6 0-44.8-20.2-44.8-44.8v-263.2c0-24.7 20.2-44.8 44.8-44.8Z"  horiz-adv-x="1024" />

    
    <glyph glyph-name="renwu" unicode="&#59074;" d="M491.66666667 370.70000000000005c86.4 0 151 110.4 151 209 0 92.8-59.3 152.8-151 152.8s-150.9-60-150.9-152.8c0-98.6 64.5-209 150.9-209z m0 323.8c70.7 0 113-42.9 113-114.8 0-77.5-50.4-171-113-171s-112.9 93.6-112.9 171c0 84.7 58.3 114.8 112.9 114.8zM491.66666667 311.9c-151 0-273.9-103.4-273.9-230.4 0-10.5 8.5-19 19-19h509.8c10.5 0 19 8.5 19 19 0 127.1-122.9 230.4-273.9 230.4zM256.96666667 100.60000000000002C268.66666667 197.79999999999995 369.46666667 273.9 491.66666667 273.9s223-76.2 234.7-173.4H256.96666667z"  horiz-adv-x="1024" />

    
    <glyph glyph-name="dingwei" unicode="&#60466;" d="M512 384m-80 0a80 80 0 1 1 160 0 80 80 0 1 1-160 0ZM960 416h-33.632C910.752 619.84 747.84 782.752 544 798.368V832a32 32 0 1 1-64 0v-33.632C276.16 782.752 113.248 619.84 97.632 416H64a32 32 0 0 1 0-64h33.632C113.248 148.16 276.16-14.752 480-30.368V-64a32 32 0 1 1 64 0v33.632C747.84-14.752 910.752 148.16 926.368 352H960a32 32 0 1 1 0 64zM544 33.632V96a32 32 0 1 1-64 0v-62.368C311.424 48.896 176.896 183.424 161.632 352H224a32 32 0 1 1 0 64H161.632C176.896 584.576 311.424 719.104 480 734.368V672a32 32 0 0 1 64 0V734.368c168.576-15.296 303.104-149.792 318.368-318.368H800a32 32 0 1 1 0-64h62.368c-15.264-168.576-149.792-303.104-318.368-318.368z"  horiz-adv-x="1024" />

    
    <glyph glyph-name="weibiaoti12" unicode="&#58910;" d="M960 320 64 320c-35.2 0-64 28.8-64 64 0 35.2 28.8 64 64 64l896 0c35.2 0 64-28.8 64-64C1024 348.8 995.2 320 960 320zM960 696 64 696c-35.2 0-64 28.8-64 64 0 35.2 28.8 64 64 64l896 0c35.2 0 64-28.8 64-64C1024 724.8 995.2 696 960 696zM64 72l896 0c35.2 0 64-28.8 64-64 0-35.2-28.8-64-64-64L64-56c-35.2 0-64 28.8-64 64C0 43.2 28.8 72 64 72z"  horiz-adv-x="1024" />

    
    <glyph glyph-name="caidan-tianchong" unicode="&#59177;" d="M352 793.6H150.4C99.2 793.6 57.6 755.2 57.6 704v-204.8c0-51.2 41.6-89.6 89.6-89.6H352c51.2 0 89.6 41.6 89.6 89.6V704c0 51.2-38.4 89.6-89.6 89.6zM937.6 665.6l-144 144c-35.2 35.2-92.8 35.2-128 0l-144-144c-16-16-25.6-38.4-25.6-64s9.6-48 25.6-64l144-144c16-16 38.4-25.6 64-25.6s48 9.6 64 25.6l144 144c16 16 25.6 38.4 25.6 64 3.2 25.6-6.4 48-25.6 64zM352 313.6H150.4c-51.2 0-89.6-41.6-89.6-89.6v-204.8c0-51.2 41.6-89.6 89.6-89.6H352c51.2 0 89.6 41.6 89.6 89.6V224c0 51.2-38.4 89.6-89.6 89.6zM832 313.6h-204.8c-51.2 0-89.6-41.6-89.6-89.6v-204.8c0-51.2 41.6-89.6 89.6-89.6H832c51.2 0 89.6 41.6 89.6 89.6V224c0 51.2-38.4 89.6-89.6 89.6z"  horiz-adv-x="1024" />

    
    <glyph glyph-name="shujutongji" unicode="&#58894;" d="M139.824702 255.69030199999997c-17.05959 0-33.2288 3.231844-48.526361 9.704274-15.291317 6.467434-28.525893 15.286322-39.697482 26.467902-11.175337 11.170341-20.000468 24.404917-26.466654 39.697483-6.472429 15.295063-9.70802 31.464273-9.70802 48.523863 0 17.054595 3.23559 33.082693 9.70802 48.074303 6.467434 15.0016 15.292566 28.087571 26.466654 39.264156 11.17159 11.17159 24.406166 19.996722 39.697482 26.461658 15.297561 6.472429 31.466771 9.709268 48.526361 9.709269 3.530302 0 6.762146-0.1536 9.70802-0.448312a90.136976 90.136976 0 0 1 8.818888-0.435825l172.039492 208.206673c-2.940878 5.876761-4.856507 12.350439-5.739395 19.406049-0.874146 7.056859-1.32121 14.40718-1.321209 22.053464 0 17.05959 3.236839 33.2288 9.708019 48.521365 6.467434 15.291317 15.291317 28.524644 26.467903 39.70123 11.17159 11.17159 24.403668 19.995473 39.694985 26.467902 15.297561 6.467434 31.473015 9.703024 48.526361 9.703024 17.054595 0 33.2288-3.23559 48.525112-9.703024 15.292566-6.472429 28.525893-15.297561 39.702478-26.467902 11.17159-11.176585 19.996722-24.409912 26.467903-39.70123 6.467434-15.292566 9.703024-31.466771 9.703024-48.521365 0-14.117463-2.205346-27.4944-6.613542-40.138303-4.415688-12.648898-10.4448-24.552273-18.091082-35.733854l149.103141-333.473092 85.57518 152.618458c-6.467434 9.997737-11.759766 21.025717-15.875746 33.082693-4.119727 12.060722-6.176468 24.85198-6.176468 38.380019 0 17.05959 3.230595 33.230049 9.703024 48.520118 6.473678 15.291317 15.291317 28.525893 26.467903 39.701229 11.176585 11.17159 24.409912 19.996722 39.701229 26.462907 15.291317 6.47118 31.466771 9.70802 48.526361 9.70802 17.053346 0 33.2288-3.236839 48.520117-9.70802 15.291317-6.467434 28.672-15.292566 40.143298-26.462907 11.471298-11.176585 20.436293-24.409912 26.90997-39.701229 6.472429-15.291317 9.703024-31.466771 9.703025-48.520118 0-17.642771-3.230595-34.112937-9.703025-49.405502-6.473678-15.291317-15.438673-28.672-26.90997-40.138302-11.472546-11.470049-24.85198-20.443785-40.143298-26.908722-15.296312-6.467434-31.466771-9.703024-48.520117-9.703025h-21.174322l-83.813151-152.629697c12.938615-11.754771 23.232312-25.576273 30.878595-41.459512 7.645034-15.880741 11.466302-33.227551 11.466302-52.051669 0-17.053346-3.236839-33.2288-9.704273-48.520117s-15.443668-28.672-26.909971-40.143297c-11.466302-11.467551-24.699629-20.431298-39.701229-26.904976-15.002849-6.473678-31.31442-9.704273-48.963434-9.704273-17.642771 0-33.96558 3.230595-48.968429 9.704273-14.996605 6.473678-28.082576 15.437424-39.254166 26.904976-11.18158 11.471298-20.006712 24.850732-26.467903 40.143297-6.472429 15.291317-9.70802 31.466771-9.708019 48.520117 0 18.822868 3.672663 36.170927 11.029229 52.051669 7.351571 15.883239 17.496663 29.704741 30.435278 41.459512l-151.745561 339.655805c-5.881756-1.172605-10.587161-1.762029-14.117463-1.76203-9.413307 0-18.3808 1.178849-26.904976 3.530303-8.529171 2.351454-16.623766 5.29358-24.262556 8.820136l-150.865171-190.558907c5.879259-9.997737 10.582166-20.732254 14.118713-32.203551 3.525307-11.466302 5.288585-23.374673 5.288585-35.723864 0-17.05959-3.236839-33.233795-9.703024-48.520117-6.467434-15.296312-15.438673-28.530888-26.909971-39.701229-11.466302-11.18158-24.699629-20.001717-39.702478-26.467902-14.996605-6.472429-31.319415-9.704273-48.962186-9.704274z m-124.398517-249.668682h994.299005v-119.980332H15.426185v119.980332z m0 0"  horiz-adv-x="1024" />

    
    <glyph glyph-name="wodeshangpin" unicode="&#58909;" d="M477.062868 791.749307c-23.147395 14.017561-98.837229 53.587668-143.855766 78.665678-39.33159 21.868644-51.266185-25.084254-55.013775-57.246595-3.745093-32.247259-3.745093-73.961522 37.492136-73.961522h151.37842c41.232234 0 41.232234 33.388644 9.998985 52.542439z m266.67083 22.109659c-3.743844 32.161093-15.67719 79.110244-55.046244 57.244097-45.073483-25.083005-120.708371-64.653112-143.850771-78.75559-31.298185-19.072624-31.298185-52.451278 10.030205-52.451278h151.348449c41.262205 0 41.262205 41.739239 37.518361 73.962771z m206.654439-116.501229H545.381151v-213.475278h405.005737c23.9104 0 43.288976 19.709502 43.288975 44.017014V653.3419710000001c-0.004995 24.307512-19.383571 44.015766-43.287726 44.015766zM477.069112 441.284059H165.289834c-47.09401 0-85.27922-38.825834-85.279219-86.720313v-381.594848c0-47.895727 38.177717-86.719063 85.279219-86.719064h311.779278V441.284059z m380.100059 0H545.381151v-555.02923h311.78802c47.09401 0 85.277971 38.824585 85.27797 86.719064V354.557502c-0.006244 47.893229-38.183961 86.726556-85.27797 86.726557zM477.069112 697.357737H72.065873c-23.905405 0-43.285229-19.708254-43.285229-44.015766v-125.442498c0-24.306263 19.379824-44.017015 43.285229-44.017014h405.003239V697.357737z m0 0"  horiz-adv-x="1024" />

    
    </font>
</defs>
</svg>
